{
  "accessors": [
    {
      "bufferView": 1,
      "componentType": 5126,
      "count": 65532,
      "max": [
        142.38555908203125,
        342.5873107910156,
        -52.94047927856445
      ],
      "min": [
        -163.49485778808594,
        -20.82839584350586,
        -221.8668212890625
      ],
      "type": "VEC3"
    },
    {
      "bufferView": 1,
      "byteOffset": 786384,
      "componentType": 5126,
      "count": 65532,
      "max": [
        0.9999913573265076,
        1.0,
        0.9999870657920837
      ],
      "min": [
        -0.9999780058860779,
        -0.9999997615814209,
        -0.9999629855155945
      ],
      "type": "VEC3"
    },
    {
      "bufferView": 2,
      "componentType": 5126,
      "count": 65532,
      "max": [
        1.0,
        1.0,
        1.0,
        1.0
      ],
      "min": [
        0.003921568859368563,
        0.003921568859368563,
        0.003921568859368563,
        1.0
      ],
      "type": "VEC4"
    },
    {
      "bufferView": 0,
      "componentType": 5125,
      "count": 193488,
      "type": "SCALAR"
    },
    {
      "bufferView": 1,
      "byteOffset": 1572768,
      "componentType": 5126,
      "count": 65532,
      "max": [
        142.1448211669922,
        342.5873107910156,
        -61.24085235595703
      ],
      "min": [
        -166.0498046875,
        -44.52320861816406,
        -256.9997253417969
      ],
      "type": "VEC3"
    },
    {
      "bufferView": 1,
      "byteOffset": 2359152,
      "componentType": 5126,
      "count": 65532,
      "max": [
        0.9999407529830933,
        0.9999881982803345,
        0.999991774559021
      ],
      "min": [
        -0.9999811053276062,
        -0.9999708533287048,
        -0.9999948740005493
      ],
      "type": "VEC3"
    },
    {
      "bufferView": 2,
      "byteOffset": 1048512,
      "componentType": 5126,
      "count": 65532,
      "max": [
        1.0,
        1.0,
        1.0,
        1.0
      ],
      "min": [
        0.003921568859368563,
        0.0,
        0.0,
        1.0
      ],
      "type": "VEC4"
    },
    {
      "bufferView": 0,
      "byteOffset": 773952,
      "componentType": 5125,
      "count": 178005,
      "type": "SCALAR"
    },
    {
      "bufferView": 1,
      "byteOffset": 3145536,
      "componentType": 5126,
      "count": 19168,
      "max": [
        -38.37018585205078,
        68.69467163085938,
        -148.8627166748047
      ],
      "min": [
        -102.62223052978516,
        -19.746877670288086,
        -216.1754608154297
      ],
      "type": "VEC3"
    },
    {
      "bufferView": 1,
      "byteOffset": 3375552,
      "componentType": 5126,
      "count": 19168,
      "max": [
        0.9999264478683472,
        0.999995231628418,
        0.999740481376648
      ],
      "min": [
        -0.9999898672103882,
        -0.9995867013931274,
        -0.9999439120292664
      ],
      "type": "VEC3"
    },
    {
      "bufferView": 2,
      "byteOffset": 2097024,
      "componentType": 5126,
      "count": 19168,
      "max": [
        1.0,
        1.0,
        1.0,
        1.0
      ],
      "min": [
        1.0,
        1.0,
        1.0,
        1.0
      ],
      "type": "VEC4"
    },
    {
      "bufferView": 0,
      "byteOffset": 1485972,
      "componentType": 5125,
      "count": 34314,
      "type": "SCALAR"
    }
  ],
  "asset": {
    "extras": {
      "author": "Chair_Digital_Anatomy (https://sketchfab.com/Chair_Digital_Anatomy)",
      "license": "CC-BY-4.0 (http://creativecommons.org/licenses/by/4.0/)",
      "source": "https://sketchfab.com/3d-models/polydystrophie-anevrysmale-aorto-iliaque-cc7409ae678a4f66be96b321a18447ce",
      "title": "Polydystrophie anévrysmale aorto-iliaque"
    },
    "generator": "Sketchfab-12.68.0",
    "version": "2.0"
  },
  "bufferViews": [
    {
      "buffer": 0,
      "byteLength": 1623228,
      "name": "floatBufferViews",
      "target": 34963
    },
    {
      "buffer": 0,
      "byteLength": 3605568,
      "byteOffset": 1623228,
      "byteStride": 12,
      "name": "floatBufferViews",
      "target": 34962
    },
    {
      "buffer": 0,
      "byteLength": 2403712,
      "byteOffset": 5228796,
      "byteStride": 16,
      "name": "floatBufferViews",
      "target": 34962
    }
  ],
  "buffers": [
    {
      "byteLength": 7632508,
      "uri": "scene.bin"
    }
  ],
  "materials": [
    {
      "doubleSided": true,
      "name": "material_0",
      "pbrMetallicRoughness": {
        "metallicFactor": 0.0,
        "roughnessFactor": 0.6
      }
    }
  ],
  "meshes": [
    {
      "name": "Object_0",
      "primitives": [
        {
          "attributes": {
            "COLOR_0": 2,
            "NORMAL": 1,
            "POSITION": 0
          },
          "indices": 3,
          "material": 0,
          "mode": 4
        }
      ]
    },
    {
      "name": "Object_1",
      "primitives": [
        {
          "attributes": {
            "COLOR_0": 6,
            "NORMAL": 5,
            "POSITION": 4
          },
          "indices": 7,
          "material": 0,
          "mode": 4
        }
      ]
    },
    {
      "name": "Object_2",
      "primitives": [
        {
          "attributes": {
            "COLOR_0": 10,
            "NORMAL": 9,
            "POSITION": 8
          },
          "indices": 11,
          "material": 0,
          "mode": 4
        }
      ]
    }
  ],
  "nodes": [
    {
      "children": [
        1
      ],
      "matrix": [
        -1.0,
        -1.1102230246251557e-16,
        -3.9429923678191555e-16,
        0.0,
        1.1102230246251565e-16,
        -1.0,
        -6.661338147750939e-16,
        0.0,
        -3.9429923678191555e-16,
        -6.661338147750939e-16,
        1.0,
        0.0,
        -23.664566040039063,
        -5.93907928466797,
        5.939079284667968,
        1.0
      ],
      "name": "Sketchfab_model"
    },
    {
      "children": [
        2,
        3,
        4
      ],
      "name": "Anevrix2.obj.cleaner.materialmerger.gles"
    },
    {
      "mesh": 0,
      "name": "Object_2"
    },
    {
      "mesh": 1,
      "name": "Object_3"
    },
    {
      "mesh": 2,
      "name": "Object_4"
    }
  ],
  "scene": 0,
  "scenes": [
    {
      "name": "Sketchfab_Scene",
      "nodes": [
        0
      ]
    }
  ]
}
