{
  "accessors": [
    {
      "bufferView": 2,
      "componentType": 5126,
      "count": 23004,
      "max": [
        -90.94664001464844,
        152.041015625,
        6.5133376121521
      ],
      "min": [
        -104.9590072631836,
        128.1221923828125,
        -10.716612815856934
      ],
      "type": "VEC3"
    },
    {
      "bufferView": 2,
      "byteOffset": 276048,
      "componentType": 5126,
      "count": 23004,
      "max": [
        0.9999510645866394,
        0.9999359846115112,
        0.9998974800109863
      ],
      "min": [
        -0.9999945759773254,
        -0.9999813437461853,
        -0.9997143745422363
      ],
      "type": "VEC3"
    },
    {
      "bufferView": 1,
      "componentType": 5126,
      "count": 23004,
      "max": [
        0.671964168548584,
        0.4845595955848694
      ],
      "min": [
        0.03557988256216049,
        0.02451881393790245
      ],
      "type": "VEC2"
    },
    {
      "bufferView": 1,
      "byteOffset": 184032,
      "componentType": 5126,
      "count": 23004,
      "max": [
        0.671964168548584,
        0.4845595955848694
      ],
      "min": [
        0.03557988256216049,
        0.02451881393790245
      ],
      "type": "VEC2"
    },
    {
      "bufferView": 0,
      "componentType": 5125,
      "count": 136080,
      "type": "SCALAR"
    },
    {
      "bufferView": 2,
      "byteOffset": 552096,
      "componentType": 5126,
      "count": 24293,
      "max": [
        -77.71822357177734,
        156.27151489257813,
        4.466548919677734
      ],
      "min": [
        -98.37167358398438,
        129.493408203125,
        -9.339868545532227
      ],
      "type": "VEC3"
    },
    {
      "bufferView": 2,
      "byteOffset": 843612,
      "componentType": 5126,
      "count": 24293,
      "max": [
        0.9998828768730164,
        0.999832272529602,
        0.9999905824661255
      ],
      "min": [
        -0.9999669194221497,
        -0.9998096227645874,
        -0.9999962449073792
      ],
      "type": "VEC3"
    },
    {
      "bufferView": 1,
      "byteOffset": 368064,
      "componentType": 5126,
      "count": 24293,
      "max": [
        0.9631790518760681,
        0.971623957157135
      ],
      "min": [
        0.299206018447876,
        0.46661004424095154
      ],
      "type": "VEC2"
    },
    {
      "bufferView": 1,
      "byteOffset": 562408,
      "componentType": 5126,
      "count": 24293,
      "max": [
        0.9631790518760681,
        0.971623957157135
      ],
      "min": [
        0.299206018447876,
        0.46661004424095154
      ],
      "type": "VEC2"
    },
    {
      "bufferView": 0,
      "byteOffset": 544320,
      "componentType": 5125,
      "count": 136524,
      "type": "SCALAR"
    },
    {
      "bufferView": 2,
      "byteOffset": 1135128,
      "componentType": 5126,
      "count": 233,
      "max": [
        -88.81904602050781,
        156.28778076171875,
        2.88213849067688
      ],
      "min": [
        -91.21302032470703,
        154.89556884765625,
        1.9027464389801025
      ],
      "type": "VEC3"
    },
    {
      "bufferView": 2,
      "byteOffset": 1137924,
      "componentType": 5126,
      "count": 233,
      "max": [
        0.9611198306083679,
        0.9715251922607422,
        0.9991820454597473
      ],
      "min": [
        -0.9589617848396301,
        -0.8906122446060181,
        -0.996127724647522
      ],
      "type": "VEC3"
    },
    {
      "bufferView": 1,
      "byteOffset": 756752,
      "componentType": 5126,
      "count": 233,
      "max": [
        0.6510009169578552,
        0.9767125248908997
      ],
      "min": [
        0.5280102491378784,
        0.8783232569694519
      ],
      "type": "VEC2"
    },
    {
      "bufferView": 1,
      "byteOffset": 758616,
      "componentType": 5126,
      "count": 233,
      "max": [
        0.6510009169578552,
        0.9767125248908997
      ],
      "min": [
        0.5280102491378784,
        0.8783232569694519
      ],
      "type": "VEC2"
    },
    {
      "bufferView": 0,
      "byteOffset": 1090416,
      "componentType": 5125,
      "count": 1248,
      "type": "SCALAR"
    },
    {
      "bufferView": 2,
      "byteOffset": 1140720,
      "componentType": 5126,
      "count": 1295,
      "max": [
        -88.30730438232422,
        160.8108367919922,
        5.5449676513671875
      ],
      "min": [
        -91.57896423339844,
        154.97056579589844,
        0.4986023008823395
      ],
      "type": "VEC3"
    },
    {
      "bufferView": 2,
      "byteOffset": 1156260,
      "componentType": 5126,
      "count": 1295,
      "max": [
        0.9999563097953796,
        0.999738335609436,
        0.9999964833259583
      ],
      "min": [
        -0.9999144077301025,
        -0.9811726212501526,
        -0.9998668432235718
      ],
      "type": "VEC3"
    },
    {
      "bufferView": 1,
      "byteOffset": 760480,
      "componentType": 5126,
      "count": 1295,
      "max": [
        0.9759055376052856,
        0.9545172452926636
      ],
      "min": [
        0.5116842985153198,
        0.513681173324585
      ],
      "type": "VEC2"
    },
    {
      "bufferView": 1,
      "byteOffset": 770840,
      "componentType": 5126,
      "count": 1295,
      "max": [
        0.9759055376052856,
        0.9545172452926636
      ],
      "min": [
        0.5116842985153198,
        0.513681173324585
      ],
      "type": "VEC2"
    },
    {
      "bufferView": 0,
      "byteOffset": 1095408,
      "componentType": 5125,
      "count": 7332,
      "type": "SCALAR"
    },
    {
      "bufferView": 2,
      "byteOffset": 1171800,
      "componentType": 5126,
      "count": 716,
      "max": [
        -87.96229553222656,
        160.8646697998047,
        5.530465602874756
      ],
      "min": [
        -92.03770446777344,
        156.47926330566406,
        1.8298286199569702
      ],
      "type": "VEC3"
    },
    {
      "bufferView": 2,
      "byteOffset": 1180392,
      "componentType": 5126,
      "count": 716,
      "max": [
        0.9989312887191772,
        0.9511971473693848,
        0.9994509816169739
      ],
      "min": [
        -0.9992163181304932,
        -0.9575331211090088,
        -0.9992108941078186
      ],
      "type": "VEC3"
    },
    {
      "bufferView": 1,
      "byteOffset": 781200,
      "componentType": 5126,
      "count": 716,
      "max": [
        0.8313645124435425,
        0.5208740234375
      ],
      "min": [
        0.4569219946861267,
        0.24198085069656372
      ],
      "type": "VEC2"
    },
    {
      "bufferView": 1,
      "byteOffset": 786928,
      "componentType": 5126,
      "count": 716,
      "max": [
        0.8313645124435425,
        0.5208740234375
      ],
      "min": [
        0.4569219946861267,
        0.24198085069656372
      ],
      "type": "VEC2"
    },
    {
      "bufferView": 0,
      "byteOffset": 1124736,
      "componentType": 5125,
      "count": 3684,
      "type": "SCALAR"
    },
    {
      "bufferView": 2,
      "byteOffset": 1188984,
      "componentType": 5126,
      "count": 3712,
      "max": [
        -89.35536193847656,
        159.9785919189453,
        4.793383598327637
      ],
      "min": [
        -90.63079833984375,
        157.1888885498047,
        3.8576574325561523
      ],
      "type": "VEC3"
    },
    {
      "bufferView": 2,
      "byteOffset": 1233528,
      "componentType": 5126,
      "count": 3712,
      "max": [
        0.9987335205078125,
        0.9971893429756165,
        0.9994350671768188
      ],
      "min": [
        -0.9984806180000305,
        -0.9971056580543518,
        -0.9996033906936646
      ],
      "type": "VEC3"
    },
    {
      "bufferView": 1,
      "byteOffset": 792656,
      "componentType": 5126,
      "count": 3712,
      "max": [
        0.639914333820343,
        0.18874332308769226
      ],
      "min": [
        0.019942885264754295,
        0.009412740357220173
      ],
      "type": "VEC2"
    },
    {
      "bufferView": 1,
      "byteOffset": 822352,
      "componentType": 5126,
      "count": 3712,
      "max": [
        0.639914333820343,
        0.18874332308769226
      ],
      "min": [
        0.019942885264754295,
        0.009412740357220173
      ],
      "type": "VEC2"
    },
    {
      "bufferView": 0,
      "byteOffset": 1139472,
      "componentType": 5125,
      "count": 21660,
      "type": "SCALAR"
    },
    {
      "bufferView": 2,
      "byteOffset": 1278072,
      "componentType": 5126,
      "count": 2313,
      "max": [
        -87.77267456054688,
        161.01333618164063,
        5.7750773429870605
      ],
      "min": [
        -92.19818115234375,
        154.5986785888672,
        0.04549035057425499
      ],
      "type": "VEC3"
    },
    {
      "bufferView": 2,
      "byteOffset": 1305828,
      "componentType": 5126,
      "count": 2313,
      "max": [
        0.9999649524688721,
        0.9976407885551453,
        0.9956684112548828
      ],
      "min": [
        -0.9999834299087524,
        -0.9994955062866211,
        -0.9999814033508301
      ],
      "type": "VEC3"
    },
    {
      "bufferView": 1,
      "byteOffset": 852048,
      "componentType": 5126,
      "count": 2313,
      "max": [
        0.5033918023109436,
        0.9717410802841187
      ],
      "min": [
        0.014122881926596165,
        0.2096404731273651
      ],
      "type": "VEC2"
    },
    {
      "bufferView": 1,
      "byteOffset": 870552,
      "componentType": 5126,
      "count": 2313,
      "max": [
        0.964259147644043,
        1.0
      ],
      "min": [
        0.0,
        0.0
      ],
      "type": "VEC2"
    },
    {
      "bufferView": 1,
      "byteOffset": 889056,
      "componentType": 5126,
      "count": 2313,
      "max": [
        0.5033918023109436,
        0.9717410802841187
      ],
      "min": [
        0.014122881926596165,
        0.2096404731273651
      ],
      "type": "VEC2"
    },
    {
      "bufferView": 0,
      "byteOffset": 1226112,
      "componentType": 5125,
      "count": 12564,
      "type": "SCALAR"
    },
    {
      "bufferView": 2,
      "byteOffset": 1333584,
      "componentType": 5126,
      "count": 1095,
      "max": [
        -88.86028289794922,
        157.84609985351563,
        3.2118136882781982
      ],
      "min": [
        -89.98216247558594,
        155.68115234375,
        0.7134262323379517
      ],
      "type": "VEC3"
    },
    {
      "bufferView": 2,
      "byteOffset": 1346724,
      "componentType": 5126,
      "count": 1095,
      "max": [
        0.995430588722229,
        0.9807544946670532,
        0.991181492805481
      ],
      "min": [
        -0.999961793422699,
        -0.9959769248962402,
        -0.9988626837730408
      ],
      "type": "VEC3"
    },
    {
      "bufferView": 1,
      "byteOffset": 907560,
      "componentType": 5126,
      "count": 1095,
      "max": [
        0.9650449156761169,
        0.9576089382171631
      ],
      "min": [
        0.3663071393966675,
        0.15692783892154694
      ],
      "type": "VEC2"
    },
    {
      "bufferView": 1,
      "byteOffset": 916320,
      "componentType": 5126,
      "count": 1095,
      "max": [
        0.9650449156761169,
        0.9576089382171631
      ],
      "min": [
        0.3663071393966675,
        0.15692783892154694
      ],
      "type": "VEC2"
    },
    {
      "bufferView": 0,
      "byteOffset": 1276368,
      "componentType": 5125,
      "count": 5928,
      "type": "SCALAR"
    },
    {
      "bufferView": 2,
      "byteOffset": 1359864,
      "componentType": 5126,
      "count": 1095,
      "max": [
        -90.00695037841797,
        157.84609985351563,
        3.2126970291137695
      ],
      "min": [
        -91.1322021484375,
        155.68115234375,
        0.7170065641403198
      ],
      "type": "VEC3"
    },
    {
      "bufferView": 2,
      "byteOffset": 1373004,
      "componentType": 5126,
      "count": 1095,
      "max": [
        0.9999472498893738,
        0.9894902110099792,
        0.9897439479827881
      ],
      "min": [
        -0.9950380921363831,
        -0.9959818124771118,
        -0.9990396499633789
      ],
      "type": "VEC3"
    },
    {
      "bufferView": 1,
      "byteOffset": 925080,
      "componentType": 5126,
      "count": 1095,
      "max": [
        0.9803614616394043,
        0.1645355224609375
      ],
      "min": [
        0.5824387073516846,
        0.013796516694128513
      ],
      "type": "VEC2"
    },
    {
      "bufferView": 1,
      "byteOffset": 933840,
      "componentType": 5126,
      "count": 1095,
      "max": [
        0.9803614616394043,
        0.1645355224609375
      ],
      "min": [
        0.5824387073516846,
        0.013796516694128513
      ],
      "type": "VEC2"
    },
    {
      "bufferView": 0,
      "byteOffset": 1300080,
      "componentType": 5125,
      "count": 5928,
      "type": "SCALAR"
    }
  ],
  "asset": {
    "extras": {
      "author": "prasanth.k (https://sketchfab.com/prasanth.k)",
      "license": "CC-BY-4.0 (http://creativecommons.org/licenses/by/4.0/)",
      "source": "https://sketchfab.com/3d-models/lung-right-974d63ce2b1f4760a885e6e88dca7f78",
      "title": "Lung_Right"
    },
    "generator": "Sketchfab-12.66.0",
    "version": "2.0"
  },
  "bufferViews": [
    {
      "buffer": 0,
      "byteLength": 1323792,
      "name": "floatBufferViews",
      "target": 34963
    },
    {
      "buffer": 0,
      "byteLength": 942600,
      "byteOffset": 1323792,
      "byteStride": 8,
      "name": "floatBufferViews",
      "target": 34962
    },
    {
      "buffer": 0,
      "byteLength": 1386144,
      "byteOffset": 2266392,
      "byteStride": 12,
      "name": "floatBufferViews",
      "target": 34962
    }
  ],
  "buffers": [
    {
      "byteLength": 3652536,
      "uri": "scene.bin"
    }
  ],
  "images": [
    {
      "uri": "textures/Male_Anatomy_Pack_Complete_V05Male_Respiratory_System_V05Respiratoy_Lung_mat_baseColor.png"
    },
    {
      "uri": "textures/Male_Anatomy_Pack_Complete_V05Male_Respiratory_System_V05Respiratoy_Bronchi_mat_baseColor.jpeg"
    },
    {
      "uri": "textures/Male_Anatomy_Pack_Complete_V05Male_Respiratory_System_V05Respiratory_Cricothyroid_Ligament_mat_baseColor.jpeg"
    }
  ],
  "materials": [
    {
      "doubleSided": true,
      "name": "Male_Anatomy_Pack_Complete_V05Male_Respiratory_System_V05Respiratoy_Lung_mat",
      "pbrMetallicRoughness": {
        "baseColorTexture": {
          "index": 0
        },
        "metallicFactor": 0.0,
        "roughnessFactor": 0.28082951802467326
      }
    },
    {
      "doubleSided": true,
      "name": "Male_Anatomy_Pack_Complete_V05Male_Respiratory_System_V05Respiratoy_Bronchi_mat",
      "pbrMetallicRoughness": {
        "baseColorTexture": {
          "index": 1
        },
        "metallicFactor": 0.0,
        "roughnessFactor": 0.29963853370543997
      }
    },
    {
      "doubleSided": true,
      "name": "Male_Anatomy_Pack_Complete_V05Male_Respiratory_System_V05Respiratory_Cricothyroid_Ligament_mat",
      "pbrMetallicRoughness": {
        "baseColorTexture": {
          "index": 2
        },
        "metallicFactor": 0.0,
        "roughnessFactor": 0.25650882537134656
      }
    }
  ],
  "meshes": [
    {
      "name": "Respiratoy_Lung_Geo_Right_Male_Anatomy_Pack_Complete_V05:Male_Respiratory_System_V05:Respiratoy_Lung_mat_0",
      "primitives": [
        {
          "attributes": {
            "NORMAL": 1,
            "POSITION": 0,
            "TEXCOORD_0": 2,
            "TEXCOORD_1": 3
          },
          "indices": 4,
          "material": 0,
          "mode": 4
        }
      ]
    },
    {
      "name": "Respiratoy_Trachea_Geo_Male_Anatomy_Pack_Complete_V05:Male_Respiratory_System_V05:Respiratoy_Bronchi_mat_0",
      "primitives": [
        {
          "attributes": {
            "NORMAL": 6,
            "POSITION": 5,
            "TEXCOORD_0": 7,
            "TEXCOORD_1": 8
          },
          "indices": 9,
          "material": 1,
          "mode": 4
        }
      ]
    },
    {
      "name": "Respiratory_Cricothyroid_Ligament_Geo_Male_Anatomy_Pack_Complete_V05:Male_Respiratory_System_V05:Respiratory_Cricothyroid_Ligament_mat_0",
      "primitives": [
        {
          "attributes": {
            "NORMAL": 11,
            "POSITION": 10,
            "TEXCOORD_0": 12,
            "TEXCOORD_1": 13
          },
          "indices": 14,
          "material": 2,
          "mode": 4
        }
      ]
    },
    {
      "name": "Respiratoy_Epiglotis_Geo_Male_Anatomy_Pack_Complete_V05:Male_Respiratory_System_V05:Respiratory_Cricothyroid_Ligament_mat_0",
      "primitives": [
        {
          "attributes": {
            "NORMAL": 16,
            "POSITION": 15,
            "TEXCOORD_0": 17,
            "TEXCOORD_1": 18
          },
          "indices": 19,
          "material": 2,
          "mode": 4
        }
      ]
    },
    {
      "name": "Respiratoy_Thyroid_Membrane_Geo_Male_Anatomy_Pack_Complete_V05:Male_Respiratory_System_V05:Respiratory_Cricothyroid_Ligament_mat_0",
      "primitives": [
        {
          "attributes": {
            "NORMAL": 21,
            "POSITION": 20,
            "TEXCOORD_0": 22,
            "TEXCOORD_1": 23
          },
          "indices": 24,
          "material": 2,
          "mode": 4
        }
      ]
    },
    {
      "name": "Respiratoy_Epiglotis_Inner_Geo_Male_Anatomy_Pack_Complete_V05:Male_Respiratory_System_V05:Respiratory_Cricothyroid_Ligament_mat_0",
      "primitives": [
        {
          "attributes": {
            "NORMAL": 26,
            "POSITION": 25,
            "TEXCOORD_0": 27,
            "TEXCOORD_1": 28
          },
          "indices": 29,
          "material": 2,
          "mode": 4
        }
      ]
    },
    {
      "name": "Respiratoy_Thyroid_Cartliage_Geo_Male_Anatomy_Pack_Complete_V05:Male_Respiratory_System_V05:Respiratory_Cricothyroid_Ligament_mat_0",
      "primitives": [
        {
          "attributes": {
            "NORMAL": 31,
            "POSITION": 30,
            "TEXCOORD_0": 32,
            "TEXCOORD_1": 33,
            "TEXCOORD_2": 34
          },
          "indices": 35,
          "material": 2,
          "mode": 4
        }
      ]
    },
    {
      "name": "Respiratoy_True_Vocal_Fold_Geo_Left_Male_Anatomy_Pack_Complete_V05:Male_Respiratory_System_V05:Respiratory_Cricothyroid_Ligament_mat_0",
      "primitives": [
        {
          "attributes": {
            "NORMAL": 37,
            "POSITION": 36,
            "TEXCOORD_0": 38,
            "TEXCOORD_1": 39
          },
          "indices": 40,
          "material": 2,
          "mode": 4
        }
      ]
    },
    {
      "name": "Respiratoy_True_Vocal_Fold_Geo_Right_Male_Anatomy_Pack_Complete_V05:Male_Respiratory_System_V05:Respiratory_Cricothyroid_Ligament_mat_0",
      "primitives": [
        {
          "attributes": {
            "NORMAL": 42,
            "POSITION": 41,
            "TEXCOORD_0": 43,
            "TEXCOORD_1": 44
          },
          "indices": 45,
          "material": 2,
          "mode": 4
        }
      ]
    }
  ],
  "nodes": [
    {
      "children": [
        1
      ],
      "matrix": [
        1.0,
        0.0,
        0.0,
        0.0,
        0.0,
        2.220446049250313e-16,
        -1.0,
        0.0,
        0.0,
        1.0,
        2.220446049250313e-16,
        0.0,
        0.0,
        0.0,
        0.0,
        1.0
      ],
      "name": "Sketchfab_model"
    },
    {
      "children": [
        2
      ],
      "matrix": [
        0.009999999776482582,
        0.0,
        0.0,
        0.0,
        0.0,
        0.0,
        0.009999999776482582,
        0.0,
        0.0,
        -0.009999999776482582,
        0.0,
        0.0,
        0.0,
        0.0,
        0.0,
        1.0
      ],
      "name": "cbfe603511444f4dbf0b00d46f7cbd6e.fbx"
    },
    {
      "children": [
        3
      ],
      "name": "RootNode"
    },
    {
      "children": [
        4,
        9
      ],
      "name": "Respiratory_System_grp"
    },
    {
      "children": [
        5,
        7
      ],
      "name": "Lungs"
    },
    {
      "children": [
        6
      ],
      "name": "Respiratoy_Lung_Geo_Right"
    },
    {
      "mesh": 0,
      "name": "Respiratoy_Lung_Geo_Right_Male_Anatomy_Pack_Complete_V05:Male_Respiratory_System_V05:Respiratoy_Lung_mat_0"
    },
    {
      "children": [
        8
      ],
      "name": "Respiratoy_Trachea_Geo"
    },
    {
      "mesh": 1,
      "name": "Respiratoy_Trachea_Geo_Male_Anatomy_Pack_Complete_V05:Male_Respiratory_System_V05:Respiratoy_Bronchi_mat_0"
    },
    {
      "children": [
        10,
        12,
        14,
        16,
        18,
        20,
        22
      ],
      "name": "Larynx"
    },
    {
      "children": [
        11
      ],
      "name": "Respiratory_Cricothyroid_Ligament_Geo"
    },
    {
      "mesh": 2,
      "name": "Respiratory_Cricothyroid_Ligament_Geo_Male_Anatomy_Pack_Complete_V05:Male_Respiratory_System_V05:Respiratory_Cricothyroid_Ligament_mat_0"
    },
    {
      "children": [
        13
      ],
      "name": "Respiratoy_Epiglotis_Geo"
    },
    {
      "mesh": 3,
      "name": "Respiratoy_Epiglotis_Geo_Male_Anatomy_Pack_Complete_V05:Male_Respiratory_System_V05:Respiratory_Cricothyroid_Ligament_mat_0"
    },
    {
      "children": [
        15
      ],
      "name": "Respiratoy_Thyroid_Membrane_Geo"
    },
    {
      "mesh": 4,
      "name": "Respiratoy_Thyroid_Membrane_Geo_Male_Anatomy_Pack_Complete_V05:Male_Respiratory_System_V05:Respiratory_Cricothyroid_Ligament_mat_0"
    },
    {
      "children": [
        17
      ],
      "name": "Respiratoy_Epiglotis_Inner_Geo"
    },
    {
      "mesh": 5,
      "name": "Respiratoy_Epiglotis_Inner_Geo_Male_Anatomy_Pack_Complete_V05:Male_Respiratory_System_V05:Respiratory_Cricothyroid_Ligament_mat_0"
    },
    {
      "children": [
        19
      ],
      "name": "Respiratoy_Thyroid_Cartliage_Geo"
    },
    {
      "mesh": 6,
      "name": "Respiratoy_Thyroid_Cartliage_Geo_Male_Anatomy_Pack_Complete_V05:Male_Respiratory_System_V05:Respiratory_Cricothyroid_Ligament_mat_0"
    },
    {
      "children": [
        21
      ],
      "name": "Respiratoy_True_Vocal_Fold_Geo_Left"
    },
    {
      "mesh": 7,
      "name": "Respiratoy_True_Vocal_Fold_Geo_Left_Male_Anatomy_Pack_Complete_V05:Male_Respiratory_System_V05:Respiratory_Cricothyroid_Ligament_mat_0"
    },
    {
      "children": [
        23
      ],
      "name": "Respiratoy_True_Vocal_Fold_Geo_Right"
    },
    {
      "mesh": 8,
      "name": "Respiratoy_True_Vocal_Fold_Geo_Right_Male_Anatomy_Pack_Complete_V05:Male_Respiratory_System_V05:Respiratory_Cricothyroid_Ligament_mat_0"
    }
  ],
  "samplers": [
    {
      "magFilter": 9729,
      "minFilter": 9987,
      "wrapS": 10497,
      "wrapT": 10497
    }
  ],
  "scene": 0,
  "scenes": [
    {
      "name": "Sketchfab_Scene",
      "nodes": [
        0
      ]
    }
  ],
  "textures": [
    {
      "sampler": 0,
      "source": 0
    },
    {
      "sampler": 0,
      "source": 1
    },
    {
      "sampler": 0,
      "source": 2
    }
  ]
}
