{
  "accessors": [
    {
      "bufferView": 1,
      "componentType": 5126,
      "count": 65532,
      "max": [
        159.53680419921875,
        233.8892822265625,
        100.4168701171875
      ],
      "min": [
        -162.7490997314453,
        -67.67626953125,
        -55.97705841064453
      ],
      "type": "VEC3"
    },
    {
      "bufferView": 1,
      "byteOffset": 786384,
      "componentType": 5126,
      "count": 65532,
      "max": [
        0.9999805092811584,
        0.9999733567237854,
        0.9999924898147583
      ],
      "min": [
        -0.9999814033508301,
        -0.9999909996986389,
        -0.9999991059303284
      ],
      "type": "VEC3"
    },
    {
      "bufferView": 2,
      "componentType": 5126,
      "count": 65532,
      "max": [
        1.0,
        1.0,
        1.0,
        1.0
      ],
      "min": [
        0.0,
        0.0,
        0.0,
        1.0
      ],
      "type": "VEC4"
    },
    {
      "bufferView": 0,
      "componentType": 5125,
      "count": 317079,
      "type": "SCALAR"
    },
    {
      "bufferView": 1,
      "byteOffset": 1572768,
      "componentType": 5126,
      "count": 65532,
      "max": [
        161.7124481201172,
        139.42152404785156,
        82.44806671142578
      ],
      "min": [
        -184.22662353515625,
        -72.66736602783203,
        -61.886436462402344
      ],
      "type": "VEC3"
    },
    {
      "bufferView": 1,
      "byteOffset": 2359152,
      "componentType": 5126,
      "count": 65532,
      "max": [
        0.9999995827674866,
        0.9999814629554749,
        0.9999440908432007
      ],
      "min": [
        -0.9999793767929077,
        -1.0,
        -0.9999901056289673
      ],
      "type": "VEC3"
    },
    {
      "bufferView": 2,
      "byteOffset": 1048512,
      "componentType": 5126,
      "count": 65532,
      "max": [
        1.0,
        1.0,
        1.0,
        1.0
      ],
      "min": [
        0.003921568859368563,
        0.0,
        0.003921568859368563,
        1.0
      ],
      "type": "VEC4"
    },
    {
      "bufferView": 0,
      "byteOffset": 1268316,
      "componentType": 5125,
      "count": 279798,
      "type": "SCALAR"
    },
    {
      "bufferView": 1,
      "byteOffset": 3145536,
      "componentType": 5126,
      "count": 65532,
      "max": [
        156.19508361816406,
        234.21051025390625,
        88.2478256225586
      ],
      "min": [
        -158.52223205566406,
        -72.59959411621094,
        -63.508888244628906
      ],
      "type": "VEC3"
    },
    {
      "bufferView": 1,
      "byteOffset": 3931920,
      "componentType": 5126,
      "count": 65532,
      "max": [
        0.9999747276306152,
        0.9999997615814209,
        0.9999732375144958
      ],
      "min": [
        -0.9998598694801331,
        -1.0,
        -0.9999530911445618
      ],
      "type": "VEC3"
    },
    {
      "bufferView": 2,
      "byteOffset": 2097024,
      "componentType": 5126,
      "count": 65532,
      "max": [
        1.0,
        1.0,
        1.0,
        1.0
      ],
      "min": [
        0.003921568859368563,
        0.0,
        0.003921568859368563,
        1.0
      ],
      "type": "VEC4"
    },
    {
      "bufferView": 0,
      "byteOffset": 2387508,
      "componentType": 5125,
      "count": 276153,
      "type": "SCALAR"
    },
    {
      "bufferView": 1,
      "byteOffset": 4718304,
      "componentType": 5126,
      "count": 51856,
      "max": [
        120.39450073242188,
        233.7542266845703,
        106.80814361572266
      ],
      "min": [
        -103.51187896728516,
        -72.54258728027344,
        -55.78500747680664
      ],
      "type": "VEC3"
    },
    {
      "bufferView": 1,
      "byteOffset": 5340576,
      "componentType": 5126,
      "count": 51856,
      "max": [
        0.9999688267707825,
        0.9999668598175049,
        0.9999340772628784
      ],
      "min": [
        -0.9999997615814209,
        -0.9999735355377197,
        -0.9999530911445618
      ],
      "type": "VEC3"
    },
    {
      "bufferView": 2,
      "byteOffset": 3145536,
      "componentType": 5126,
      "count": 51856,
      "max": [
        1.0,
        1.0,
        1.0,
        1.0
      ],
      "min": [
        0.003921568859368563,
        0.0,
        0.0,
        1.0
      ],
      "type": "VEC4"
    },
    {
      "bufferView": 0,
      "byteOffset": 3492120,
      "componentType": 5125,
      "count": 184083,
      "type": "SCALAR"
    }
  ],
  "asset": {
    "extras": {
      "author": "Chair_Digital_Anatomy (https://sketchfab.com/Chair_Digital_Anatomy)",
      "license": "CC-BY-4.0 (http://creativecommons.org/licenses/by/4.0/)",
      "source": "https://sketchfab.com/3d-models/coeur-et-vaissaaux-6e42e28f5bd54beeb1c221ee4de475e4",
      "title": "COEUR et vaissaaux"
    },
    "generator": "Sketchfab-12.68.0",
    "version": "2.0"
  },
  "bufferViews": [
    {
      "buffer": 0,
      "byteLength": 4228452,
      "name": "floatBufferViews",
      "target": 34963
    },
    {
      "buffer": 0,
      "byteLength": 5962848,
      "byteOffset": 4228452,
      "byteStride": 12,
      "name": "floatBufferViews",
      "target": 34962
    },
    {
      "buffer": 0,
      "byteLength": 3975232,
      "byteOffset": 10191300,
      "byteStride": 16,
      "name": "floatBufferViews",
      "target": 34962
    }
  ],
  "buffers": [
    {
      "byteLength": 14166532,
      "uri": "scene.bin"
    }
  ],
  "materials": [
    {
      "doubleSided": true,
      "name": "material_0",
      "pbrMetallicRoughness": {
        "metallicFactor": 0.0,
        "roughnessFactor": 0.6
      }
    }
  ],
  "meshes": [
    {
      "name": "Object_0",
      "primitives": [
        {
          "attributes": {
            "COLOR_0": 2,
            "NORMAL": 1,
            "POSITION": 0
          },
          "indices": 3,
          "material": 0,
          "mode": 4
        }
      ]
    },
    {
      "name": "Object_1",
      "primitives": [
        {
          "attributes": {
            "COLOR_0": 6,
            "NORMAL": 5,
            "POSITION": 4
          },
          "indices": 7,
          "material": 0,
          "mode": 4
        }
      ]
    },
    {
      "name": "Object_2",
      "primitives": [
        {
          "attributes": {
            "COLOR_0": 10,
            "NORMAL": 9,
            "POSITION": 8
          },
          "indices": 11,
          "material": 0,
          "mode": 4
        }
      ]
    },
    {
      "name": "Object_3",
      "primitives": [
        {
          "attributes": {
            "COLOR_0": 14,
            "NORMAL": 13,
            "POSITION": 12
          },
          "indices": 15,
          "material": 0,
          "mode": 4
        }
      ]
    }
  ],
  "nodes": [
    {
      "children": [
        1
      ],
      "matrix": [
        1.1102230246251565e-16,
        5.551115123125783e-17,
        1.0,
        0.0,
        2.7755575615628914e-16,
        -1.0,
        0.0,
        0.0,
        1.0,
        3.3306690738754696e-16,
        -5.551115123125775e-17,
        0.0,
        -32.90778732299805,
        102.42109680175783,
        -69.513313293457,
        1.0
      ],
      "name": "Sketchfab_model"
    },
    {
      "children": [
        2,
        3,
        4,
        5
      ],
      "name": "RAJA2.obj.cleaner.materialmerger.gles"
    },
    {
      "mesh": 0,
      "name": "Object_2"
    },
    {
      "mesh": 1,
      "name": "Object_3"
    },
    {
      "mesh": 2,
      "name": "Object_4"
    },
    {
      "mesh": 3,
      "name": "Object_5"
    }
  ],
  "scene": 0,
  "scenes": [
    {
      "name": "Sketchfab_Scene",
      "nodes": [
        0
      ]
    }
  ]
}
