{
  "accessors": [
    {
      "bufferView": 2,
      "componentType": 5126,
      "count": 43020,
      "max": [
        32.501461029052734,
        31.23596954345703,
        -32.32688903808594
      ],
      "min": [
        -32.501461029052734,
        -31.23596954345703,
        -74.12045288085938
      ],
      "type": "VEC3"
    },
    {
      "bufferView": 2,
      "byteOffset": 516240,
      "componentType": 5126,
      "count": 43020,
      "max": [
        0.9995045065879822,
        0.9999940991401672,
        0.9999621510505676
      ],
      "min": [
        -0.9999180436134338,
        -0.999973714351654,
        -0.9999775886535645
      ],
      "type": "VEC3"
    },
    {
      "bufferView": 1,
      "componentType": 5126,
      "count": 43020,
      "max": [
        0.9992700219154358,
        0.9962999820709229
      ],
      "min": [
        0.0037400000728666782,
        0.47172001004219055
      ],
      "type": "VEC2"
    },
    {
      "bufferView": 0,
      "componentType": 5125,
      "count": 190248,
      "type": "SCALAR"
    }
  ],
  "asset": {
    "extras": {
      "author": "tallulahspina (https://sketchfab.com/tallulahspina)",
      "license": "CC-BY-ND-4.0 (http://creativecommons.org/licenses/by-nd/4.0/)",
      "source": "https://sketchfab.com/3d-models/heart-6c4a97cb637840d5a41ab94694758a88",
      "title": "Heart"
    },
    "generator": "Sketchfab-12.65.0",
    "version": "2.0"
  },
  "bufferViews": [
    {
      "buffer": 0,
      "byteLength": 760992,
      "name": "floatBufferViews",
      "target": 34963
    },
    {
      "buffer": 0,
      "byteLength": 344160,
      "byteOffset": 760992,
      "byteStride": 8,
      "name": "floatBufferViews",
      "target": 34962
    },
    {
      "buffer": 0,
      "byteLength": 1032480,
      "byteOffset": 1105152,
      "byteStride": 12,
      "name": "floatBufferViews",
      "target": 34962
    }
  ],
  "buffers": [
    {
      "byteLength": 2137632,
      "uri": "scene.bin"
    }
  ],
  "extensionsUsed": [
    "KHR_materials_unlit"
  ],
  "images": [
    {
      "uri": "textures/material0_baseColor.jpeg"
    }
  ],
  "materials": [
    {
      "doubleSided": true,
      "emissiveTexture": {
        "index": 0
      },
      "extensions": {
        "KHR_materials_unlit": {}
      },
      "name": "material0",
	"pbrMetallicRoughness": {
            "baseColorTexture": {
		"index": 0
            },
	    "metallicFactor": 0.0
	}
    }
  ],
  "meshes": [
    {
      "name": "Object_0",
      "primitives": [
        {
          "attributes": {
            "NORMAL": 1,
            "POSITION": 0,
            "TEXCOORD_0": 2
          },
          "indices": 3,
          "material": 0,
          "mode": 4
        }
      ]
    }
  ],
  "nodes": [
    {
      "children": [
        1
      ],
      "matrix": [
        1.0,
        0.0,
        0.0,
        0.0,
        0.0,
        2.220446049250313e-16,
        -1.0,
        0.0,
        0.0,
        1.0,
        2.220446049250313e-16,
        0.0,
        0.0,
        0.0,
        0.0,
        1.0
      ],
      "name": "Sketchfab_model"
    },
    {
      "children": [
        2
      ],
      "name": "model_Heart_20200827_140549651.obj.cleaner.materialmerger.gles"
    },
    {
      "mesh": 0,
      "name": "Object_2"
    }
  ],
  "samplers": [
    {
      "magFilter": 9729,
      "minFilter": 9987,
      "wrapS": 10497,
      "wrapT": 10497
    }
  ],
  "scene": 0,
  "scenes": [
    {
      "name": "Sketchfab_Scene",
      "nodes": [
        0
      ]
    }
  ],
  "textures": [
    {
      "sampler": 0,
      "source": 0
    }
  ]
}
