{
  "accessors": [
    {
      "bufferView": 2,
      "componentType": 5126,
      "count": 36147,
      "max": [
        0.18611493706703186,
        -0.03253061696887016,
        0.21073117852210999
      ],
      "min": [
        -0.19866681098937988,
        -0.7393527626991272,
        -0.13715794682502747
      ],
      "type": "VEC3"
    },
    {
      "bufferView": 2,
      "byteOffset": 433764,
      "componentType": 5126,
      "count": 36147,
      "max": [
        0.9999876022338867,
        0.9999995231628418,
        0.9999675750732422
      ],
      "min": [
        -0.999981164932251,
        -0.9982734322547913,
        -0.9999919533729553
      ],
      "type": "VEC3"
    },
    {
      "bufferView": 1,
      "componentType": 5126,
      "count": 36147,
      "max": [
        0.9997221231460571,
        0.9998830556869507
      ],
      "min": [
        7.061287760734558e-06,
        1.5987083315849304e-05
      ],
      "type": "VEC2"
    },
    {
      "bufferView": 0,
      "componentType": 5125,
      "count": 186813,
      "type": "SCALAR"
    }
  ],
  "asset": {
    "extras": {
      "author": "mtaesiri (https://sketchfab.com/mtaesiri)",
      "license": "CC-BY-4.0 (http://creativecommons.org/licenses/by/4.0/)",
      "source": "https://sketchfab.com/3d-models/sheep-heart-d9896447bfca4a50ab8a80d28954d0be",
      "title": "Sheep Heart"
    },
    "generator": "Sketchfab-12.65.0",
    "version": "2.0"
  },
  "bufferViews": [
    {
      "buffer": 0,
      "byteLength": 747252,
      "name": "floatBufferViews",
      "target": 34963
    },
    {
      "buffer": 0,
      "byteLength": 289176,
      "byteOffset": 747252,
      "byteStride": 8,
      "name": "floatBufferViews",
      "target": 34962
    },
    {
      "buffer": 0,
      "byteLength": 867528,
      "byteOffset": 1036428,
      "byteStride": 12,
      "name": "floatBufferViews",
      "target": 34962
    }
  ],
  "buffers": [
    {
      "byteLength": 1903956,
      "uri": "scene.bin"
    }
  ],
  "extensionsUsed": [
    "KHR_materials_unlit"
  ],
  "images": [
    {
      "uri": "textures/material_baseColor.png"
    }
  ],
  "materials": [
    {
      "extensions": {
        "KHR_materials_unlit": {}
      },
      "name": "material",
      "pbrMetallicRoughness": {
        "baseColorTexture": {
          "index": 0
        },
        "metallicFactor": 0.0
      }
    }
  ],
  "meshes": [
    {
      "name": "g0",
      "primitives": [
        {
          "attributes": {
            "NORMAL": 1,
            "POSITION": 0,
            "TEXCOORD_0": 2
          },
          "indices": 3,
          "material": 0,
          "mode": 4
        }
      ]
    }
  ],
  "nodes": [
    {
      "children": [
        1
      ],
      "matrix": [
        3.053407669067383,
        0.0,
        0.0,
        0.0,
        0.0,
        6.779926995531278e-16,
        -3.053407669067383,
        0.0,
        0.0,
        3.053407669067383,
        6.779926995531278e-16,
        0.0,
        0.0,
        0.0,
        0.0,
        1.0
      ],
      "name": "Sketchfab_model"
    },
    {
      "children": [
        2
      ],
      "matrix": [
        1.0,
        0.0,
        0.0,
        0.0,
        0.0,
        2.220446049250313e-16,
        1.0,
        0.0,
        0.0,
        -1.0,
        2.220446049250313e-16,
        0.0,
        0.0,
        0.0,
        0.0,
        1.0
      ],
      "name": "USDRoot"
    },
    {
      "children": [
        3
      ],
      "name": "baked_mesh"
    },
    {
      "children": [
        4
      ],
      "name": "Geom"
    },
    {
      "mesh": 0,
      "name": "g0"
    }
  ],
  "samplers": [
    {
      "magFilter": 9729,
      "minFilter": 9987,
      "wrapS": 10497,
      "wrapT": 10497
    }
  ],
  "scene": 0,
  "scenes": [
    {
      "name": "Sketchfab_Scene",
      "nodes": [
        0
      ]
    }
  ],
  "textures": [
    {
      "sampler": 0,
      "source": 0
    }
  ]
}
