{
  "accessors": [
    {
      "bufferView": 2,
      "componentType": 5126,
      "count": 14561,
      "max": [
        3.2204291820526123,
        1.6540369987487793,
        2.092113971710205
      ],
      "min": [
        0.0,
        0.05912208557128906,
        0.16800391674041748
      ],
      "type": "VEC3"
    },
    {
      "bufferView": 2,
      "byteOffset": 174732,
      "componentType": 5126,
      "count": 14561,
      "max": [
        0.9999940991401672,
        0.9999704957008362,
        0.9998010993003845
      ],
      "min": [
        -0.9970142245292664,
        -0.9955284595489502,
        -0.998894453048706
      ],
      "type": "VEC3"
    },
    {
      "bufferView": 1,
      "componentType": 5126,
      "count": 14561,
      "max": [
        0.9966840147972107,
        0.9992480278015137
      ],
      "min": [
        0.0030670000705868006,
        0.0039059999398887157
      ],
      "type": "VEC2"
    },
    {
      "bufferView": 0,
      "componentType": 5125,
      "count": 78273,
      "type": "SCALAR"
    },
    {
      "bufferView": 2,
      "byteOffset": 349464,
      "componentType": 5126,
      "count": 16845,
      "max": [
        3.177507162094116,
        1.6411542892456055,
        2.085073947906494
      ],
      "min": [
        0.006705284118652344,
        0.0698552131652832,
        0.0
      ],
      "type": "VEC3"
    },
    {
      "bufferView": 2,
      "byteOffset": 551604,
      "componentType": 5126,
      "count": 16845,
      "max": [
        1.0,
        0.9999025464057922,
        0.9998934864997864
      ],
      "min": [
        -1.0,
        -1.0,
        -1.0
      ],
      "type": "VEC3"
    },
    {
      "bufferView": 1,
      "byteOffset": 116488,
      "componentType": 5126,
      "count": 16845,
      "max": [
        0.997829020023346,
        1.0400810241699219
      ],
      "min": [
        0.003309000050649047,
        0.0017659999430179596
      ],
      "type": "VEC2"
    },
    {
      "bufferView": 0,
      "byteOffset": 313092,
      "componentType": 5125,
      "count": 86049,
      "type": "SCALAR"
    },
    {
      "bufferView": 2,
      "byteOffset": 753744,
      "componentType": 5126,
      "count": 15243,
      "max": [
        3.1891591548919678,
        1.6488800048828125,
        2.0963499546051025
      ],
      "min": [
        0.0,
        0.05912208557128906,
        0.15266692638397217
      ],
      "type": "VEC3"
    },
    {
      "bufferView": 2,
      "byteOffset": 936660,
      "componentType": 5126,
      "count": 15243,
      "max": [
        0.9999021291732788,
        0.9999997615814209,
        1.0
      ],
      "min": [
        -0.9996138215065002,
        -1.0,
        -1.0
      ],
      "type": "VEC3"
    },
    {
      "bufferView": 1,
      "byteOffset": 251248,
      "componentType": 5126,
      "count": 15243,
      "max": [
        0.9887850284576416,
        0.9988449811935425
      ],
      "min": [
        -0.001319000031799078,
        0.002348999958485365
      ],
      "type": "VEC2"
    },
    {
      "bufferView": 0,
      "byteOffset": 657288,
      "componentType": 5125,
      "count": 73698,
      "type": "SCALAR"
    },
    {
      "bufferView": 2,
      "byteOffset": 1119576,
      "componentType": 5126,
      "count": 17175,
      "max": [
        3.2241930961608887,
        1.6068053245544434,
        2.1013989448547363
      ],
      "min": [
        0.006320953369140625,
        0.0,
        0.06332695484161377
      ],
      "type": "VEC3"
    },
    {
      "bufferView": 2,
      "byteOffset": 1325676,
      "componentType": 5126,
      "count": 17175,
      "max": [
        0.9995658993721008,
        1.0,
        1.0
      ],
      "min": [
        -1.0,
        -1.0,
        -1.0
      ],
      "type": "VEC3"
    },
    {
      "bufferView": 1,
      "byteOffset": 373192,
      "componentType": 5126,
      "count": 17175,
      "max": [
        0.9938409924507141,
        0.9980069994926453
      ],
      "min": [
        0.0036750000435858965,
        0.0005009999731555581
      ],
      "type": "VEC2"
    },
    {
      "bufferView": 0,
      "byteOffset": 952080,
      "componentType": 5125,
      "count": 75081,
      "type": "SCALAR"
    }
  ],
  "asset": {
    "extras": {
      "author": "ScienceLifeNY (https://sketchfab.com/ScienceLifeNY)",
      "license": "CC-BY-4.0 (http://creativecommons.org/licenses/by/4.0/)",
      "source": "https://sketchfab.com/3d-models/human-liver-22fed92c33374eac8695b1e531b34f0a",
      "title": "Human Liver"
    },
    "generator": "Sketchfab-12.68.0",
    "version": "2.0"
  },
  "bufferViews": [
    {
      "buffer": 0,
      "byteLength": 1252404,
      "name": "floatBufferViews",
      "target": 34963
    },
    {
      "buffer": 0,
      "byteLength": 510592,
      "byteOffset": 1252404,
      "byteStride": 8,
      "name": "floatBufferViews",
      "target": 34962
    },
    {
      "buffer": 0,
      "byteLength": 1531776,
      "byteOffset": 1762996,
      "byteStride": 12,
      "name": "floatBufferViews",
      "target": 34962
    }
  ],
  "buffers": [
    {
      "byteLength": 3294772,
      "uri": "scene.bin"
    }
  ],
  "images": [
    {
      "uri": "textures/liver_smooth_decimated_baseColor.jpeg"
    },
    {
      "uri": "textures/liver_smooth_decimated1_baseColor.jpeg"
    },
    {
      "uri": "textures/liver_smooth_decimated2_baseColor.jpeg"
    },
    {
      "uri": "textures/liver_smooth_decimated3_baseColor.jpeg"
    }
  ],
  "materials": [
    {
      "doubleSided": true,
      "name": "liver_smooth_decimated",
      "pbrMetallicRoughness": {
        "baseColorTexture": {
          "index": 0
        },
        "metallicFactor": 0.0,
        "roughnessFactor": 0.6
      }
    },
    {
      "doubleSided": true,
      "name": "liver_smooth_decimated1",
      "pbrMetallicRoughness": {
        "baseColorTexture": {
          "index": 1
        },
        "metallicFactor": 0.0,
        "roughnessFactor": 0.6
      }
    },
    {
      "doubleSided": true,
      "name": "liver_smooth_decimated2",
      "pbrMetallicRoughness": {
        "baseColorTexture": {
          "index": 2
        },
        "metallicFactor": 0.0,
        "roughnessFactor": 0.6
      }
    },
    {
      "doubleSided": true,
      "name": "liver_smooth_decimated3",
      "pbrMetallicRoughness": {
        "baseColorTexture": {
          "index": 3
        },
        "metallicFactor": 0.0,
        "roughnessFactor": 0.6
      }
    }
  ],
  "meshes": [
    {
      "name": "Object_0",
      "primitives": [
        {
          "attributes": {
            "NORMAL": 1,
            "POSITION": 0,
            "TEXCOORD_0": 2
          },
          "indices": 3,
          "material": 0,
          "mode": 4
        }
      ]
    },
    {
      "name": "Object_1",
      "primitives": [
        {
          "attributes": {
            "NORMAL": 5,
            "POSITION": 4,
            "TEXCOORD_0": 6
          },
          "indices": 7,
          "material": 1,
          "mode": 4
        }
      ]
    },
    {
      "name": "Object_2",
      "primitives": [
        {
          "attributes": {
            "NORMAL": 9,
            "POSITION": 8,
            "TEXCOORD_0": 10
          },
          "indices": 11,
          "material": 2,
          "mode": 4
        }
      ]
    },
    {
      "name": "Object_3",
      "primitives": [
        {
          "attributes": {
            "NORMAL": 13,
            "POSITION": 12,
            "TEXCOORD_0": 14
          },
          "indices": 15,
          "material": 3,
          "mode": 4
        }
      ]
    }
  ],
  "nodes": [
    {
      "children": [
        1
      ],
      "matrix": [
        1.0,
        0.0,
        0.0,
        0.0,
        0.0,
        0.9916836619377136,
        -0.12869943678379037,
        0.0,
        0.0,
        0.12869943678379037,
        0.9916836619377136,
        0.0,
        0.0,
        8.384878158569336,
        3.674509525299074,
        1.0
      ],
      "name": "Sketchfab_model"
    },
    {
      "children": [
        2
      ],
      "matrix": [
        1.0,
        0.0,
        0.0,
        0.0,
        0.0,
        1.0,
        0.0,
        0.0,
        0.0,
        0.0,
        1.0,
        0.0,
        -6.256720066070557,
        -7.435962200164795,
        1.0506360530853271,
        1.0
      ],
      "name": "liver smooth decimated.obj.cleaner.materialmerger.gles"
    },
    {
      "children": [
        3,
        4,
        5,
        6
      ],
      "name": "Object_2"
    },
    {
      "mesh": 0,
      "name": "Object_3"
    },
    {
      "mesh": 1,
      "name": "Object_4"
    },
    {
      "mesh": 2,
      "name": "Object_5"
    },
    {
      "mesh": 3,
      "name": "Object_6"
    }
  ],
  "samplers": [
    {
      "magFilter": 9729,
      "minFilter": 9987,
      "wrapS": 10497,
      "wrapT": 10497
    }
  ],
  "scene": 0,
  "scenes": [
    {
      "name": "Sketchfab_Scene",
      "nodes": [
        0
      ]
    }
  ],
  "textures": [
    {
      "sampler": 0,
      "source": 0
    },
    {
      "sampler": 0,
      "source": 1
    },
    {
      "sampler": 0,
      "source": 2
    },
    {
      "sampler": 0,
      "source": 3
    }
  ]
}
