{
  "accessors": [
    {
      "bufferView": 2,
      "componentType": 5126,
      "count": 188,
      "max": [
        3991.409912109375,
        -3592.94189453125,
        7019.1328125
      ],
      "min": [
        -3447.51953125,
        -4370.669921875,
        -2123.361328125
      ],
      "type": "VEC3"
    },
    {
      "bufferView": 2,
      "byteOffset": 2256,
      "componentType": 5126,
      "count": 188,
      "max": [
        0.09747906774282455,
        0.9999410510063171,
        0.2507475018501282
      ],
      "min": [
        -0.20803223550319672,
        0.9671981334686279,
        -0.2428552508354187
      ],
      "type": "VEC3"
    },
    {
      "bufferView": 1,
      "componentType": 5126,
      "count": 188,
      "max": [
        0.9489419460296631,
        0.9294755458831787
      ],
      "min": [
        0.051058024168014526,
        0.07052439451217651
      ],
      "type": "VEC2"
    },
    {
      "bufferView": 0,
      "componentType": 5125,
      "count": 420,
      "type": "SCALAR"
    },
    {
      "bufferView": 2,
      "byteOffset": 4512,
      "componentType": 5126,
      "count": 247,
      "max": [
        1464.8408203125,
        1097.01513671875,
        5623.51513671875
      ],
      "min": [
        1175.2459716796875,
        -4164.91357421875,
        722.4789428710938
      ],
      "type": "VEC3"
    },
    {
      "bufferView": 2,
      "byteOffset": 7476,
      "componentType": 5126,
      "count": 247,
      "max": [
        1.0,
        0.07626494765281677,
        0.10725844651460648
      ],
      "min": [
        0.9597721099853516,
        -0.28067871928215027,
        -0.18470977246761322
      ],
      "type": "VEC3"
    },
    {
      "bufferView": 1,
      "byteOffset": 1504,
      "componentType": 5126,
      "count": 247,
      "max": [
        0.7753344774246216,
        0.9583497047424316
      ],
      "min": [
        0.14978933334350586,
        0.14967116713523865
      ],
      "type": "VEC2"
    },
    {
      "bufferView": 0,
      "byteOffset": 1680,
      "componentType": 5125,
      "count": 1068,
      "type": "SCALAR"
    },
    {
      "bufferView": 2,
      "byteOffset": 10440,
      "componentType": 5126,
      "count": 221,
      "max": [
        1838.74853515625,
        -1235.557373046875,
        1651.0889892578125
      ],
      "min": [
        1103.844970703125,
        -2171.37548828125,
        967.6619262695313
      ],
      "type": "VEC3"
    },
    {
      "bufferView": 2,
      "byteOffset": 13092,
      "componentType": 5126,
      "count": 221,
      "max": [
        0.872904896736145,
        0.9742521643638611,
        0.9793038964271545
      ],
      "min": [
        -0.5878849029541016,
        -0.9862367510795593,
        -0.9963887929916382
      ],
      "type": "VEC3"
    },
    {
      "bufferView": 1,
      "byteOffset": 3480,
      "componentType": 5126,
      "count": 221,
      "max": [
        0.9794601798057556,
        1.080305576324463
      ],
      "min": [
        -0.27140146493911743,
        0.09869399666786194
      ],
      "type": "VEC2"
    },
    {
      "bufferView": 0,
      "byteOffset": 5952,
      "componentType": 5125,
      "count": 1083,
      "type": "SCALAR"
    },
    {
      "bufferView": 2,
      "byteOffset": 15744,
      "componentType": 5126,
      "count": 365,
      "max": [
        2853.556396484375,
        -1620.9451904296875,
        1288.767333984375
      ],
      "min": [
        1690.197998046875,
        -1951.558349609375,
        618.6432495117188
      ],
      "type": "VEC3"
    },
    {
      "bufferView": 2,
      "byteOffset": 20124,
      "componentType": 5126,
      "count": 365,
      "max": [
        0.9976385831832886,
        0.9999008178710938,
        0.8938402533531189
      ],
      "min": [
        -0.3529699146747589,
        -0.9997704029083252,
        -0.9884588718414307
      ],
      "type": "VEC3"
    },
    {
      "bufferView": 1,
      "byteOffset": 5248,
      "componentType": 5126,
      "count": 365,
      "max": [
        0.9996923804283142,
        0.291492760181427
      ],
      "min": [
        -0.1374383568763733,
        -1.2911744117736816
      ],
      "type": "VEC2"
    },
    {
      "bufferView": 0,
      "byteOffset": 10284,
      "componentType": 5125,
      "count": 1590,
      "type": "SCALAR"
    },
    {
      "bufferView": 2,
      "byteOffset": 24504,
      "componentType": 5126,
      "count": 3477,
      "max": [
        3991.409912109375,
        -1861.2171630859375,
        7019.1328125
      ],
      "min": [
        -3447.52001953125,
        -5980.77587890625,
        -2123.361328125
      ],
      "type": "VEC3"
    },
    {
      "bufferView": 2,
      "byteOffset": 66228,
      "componentType": 5126,
      "count": 3477,
      "max": [
        0.9999741911888123,
        0.9580523371696472,
        1.0
      ],
      "min": [
        -0.9999509453773499,
        -0.999994158744812,
        -0.9999996423721313
      ],
      "type": "VEC3"
    },
    {
      "bufferView": 1,
      "byteOffset": 8168,
      "componentType": 5126,
      "count": 3477,
      "max": [
        0.43243408203125,
        0.810623049736023
      ],
      "min": [
        0.04493820294737816,
        0.17647720873355865
      ],
      "type": "VEC2"
    },
    {
      "bufferView": 0,
      "byteOffset": 16644,
      "componentType": 5125,
      "count": 20001,
      "type": "SCALAR"
    },
    {
      "bufferView": 2,
      "byteOffset": 107952,
      "componentType": 5126,
      "count": 1582,
      "max": [
        1679.3538818359375,
        2659.34326171875,
        5730.63671875
      ],
      "min": [
        -827.1033935546875,
        -4168.44287109375,
        -12.578802108764648
      ],
      "type": "VEC3"
    },
    {
      "bufferView": 2,
      "byteOffset": 126936,
      "componentType": 5126,
      "count": 1582,
      "max": [
        0.9987682104110718,
        0.9919499754905701,
        0.9988291263580322
      ],
      "min": [
        -0.9982640743255615,
        -0.974481999874115,
        -0.9990324378013611
      ],
      "type": "VEC3"
    },
    {
      "bufferView": 1,
      "byteOffset": 35984,
      "componentType": 5126,
      "count": 1582,
      "max": [
        0.999828577041626,
        0.9723354578018188
      ],
      "min": [
        -0.1812489628791809,
        0.287604957818985
      ],
      "type": "VEC2"
    },
    {
      "bufferView": 0,
      "byteOffset": 96648,
      "componentType": 5125,
      "count": 8145,
      "type": "SCALAR"
    },
    {
      "bufferView": 2,
      "byteOffset": 145920,
      "componentType": 5126,
      "count": 3296,
      "max": [
        2234.339599609375,
        2128.844970703125,
        4996.44482421875
      ],
      "min": [
        350.33477783203125,
        -3963.379150390625,
        721.14306640625
      ],
      "type": "VEC3"
    },
    {
      "bufferView": 2,
      "byteOffset": 185472,
      "componentType": 5126,
      "count": 3296,
      "max": [
        0.9981358051300049,
        0.9999696612358093,
        0.988172709941864
      ],
      "min": [
        -0.9913690686225891,
        -0.9997597336769104,
        -0.9994115829467773
      ],
      "type": "VEC3"
    },
    {
      "bufferView": 1,
      "byteOffset": 48640,
      "componentType": 5126,
      "count": 3296,
      "max": [
        1609.5313720703125,
        2664.22998046875
      ],
      "min": [
        -1965.6573486328125,
        -2817.8046875
      ],
      "type": "VEC2"
    },
    {
      "bufferView": 0,
      "byteOffset": 129228,
      "componentType": 5125,
      "count": 7734,
      "type": "SCALAR"
    },
    {
      "bufferView": 2,
      "byteOffset": 225024,
      "componentType": 5126,
      "count": 1147,
      "max": [
        1925.1846923828125,
        1466.8717041015625,
        4432.4423828125
      ],
      "min": [
        678.3626098632813,
        -2176.581787109375,
        434.3633117675781
      ],
      "type": "VEC3"
    },
    {
      "bufferView": 2,
      "byteOffset": 238788,
      "componentType": 5126,
      "count": 1147,
      "max": [
        0.9799020886421204,
        0.9994252324104309,
        0.99128258228302
      ],
      "min": [
        -0.9799017310142517,
        -0.998724102973938,
        -0.9947046041488647
      ],
      "type": "VEC3"
    },
    {
      "bufferView": 1,
      "byteOffset": 75008,
      "componentType": 5126,
      "count": 1147,
      "max": [
        3215.591552734375,
        1884.44189453125
      ],
      "min": [
        -4599.1943359375,
        -2142.204833984375
      ],
      "type": "VEC2"
    },
    {
      "bufferView": 0,
      "byteOffset": 160164,
      "componentType": 5125,
      "count": 2286,
      "type": "SCALAR"
    },
    {
      "bufferView": 2,
      "byteOffset": 252552,
      "componentType": 5126,
      "count": 484,
      "max": [
        1863.117919921875,
        1848.30419921875,
        4784.50634765625
      ],
      "min": [
        999.2481689453125,
        -934.3773803710938,
        3093.115966796875
      ],
      "type": "VEC3"
    },
    {
      "bufferView": 2,
      "byteOffset": 258360,
      "componentType": 5126,
      "count": 484,
      "max": [
        0.9963282346725464,
        0.9924861192703247,
        0.9986783862113953
      ],
      "min": [
        -0.9967373609542847,
        -0.9916868209838867,
        -0.9993937015533447
      ],
      "type": "VEC3"
    },
    {
      "bufferView": 1,
      "byteOffset": 84184,
      "componentType": 5126,
      "count": 484,
      "max": [
        5926.798828125,
        1111.8564453125
      ],
      "min": [
        -4956.77490234375,
        -3350.548828125
      ],
      "type": "VEC2"
    },
    {
      "bufferView": 0,
      "byteOffset": 169308,
      "componentType": 5125,
      "count": 1920,
      "type": "SCALAR"
    },
    {
      "bufferView": 2,
      "byteOffset": 264168,
      "componentType": 5126,
      "count": 3257,
      "max": [
        1756.7841796875,
        106.19054412841797,
        4969.38427734375
      ],
      "min": [
        1013.1283569335938,
        -2201.595947265625,
        2530.517822265625
      ],
      "type": "VEC3"
    },
    {
      "bufferView": 2,
      "byteOffset": 303252,
      "componentType": 5126,
      "count": 3257,
      "max": [
        0.9995592832565308,
        0.9983624219894409,
        0.9995997548103333
      ],
      "min": [
        -0.9989188313484192,
        -0.9978458881378174,
        -0.9938655495643616
      ],
      "type": "VEC3"
    },
    {
      "bufferView": 1,
      "byteOffset": 88056,
      "componentType": 5126,
      "count": 3257,
      "max": [
        3984.880859375,
        1803.254150390625
      ],
      "min": [
        -5998.35693359375,
        -1413.7215576171875
      ],
      "type": "VEC2"
    },
    {
      "bufferView": 0,
      "byteOffset": 176988,
      "componentType": 5125,
      "count": 14106,
      "type": "SCALAR"
    }
  ],
  "asset": {
    "extras": {
      "author": "thunthu (https://sketchfab.com/thunthu)",
      "license": "CC-BY-4.0 (http://creativecommons.org/licenses/by/4.0/)",
      "source": "https://sketchfab.com/3d-models/ear-and-its-functions-collection-of-thunthu-8e2c15ce56a348a8878b1ed609478e1f",
      "title": "Ear and its functions (collection of thunthu)"
    },
    "generator": "Sketchfab-12.68.0",
    "version": "2.0"
  },
  "bufferViews": [
    {
      "buffer": 0,
      "byteLength": 233412,
      "name": "floatBufferViews",
      "target": 34963
    },
    {
      "buffer": 0,
      "byteLength": 114112,
      "byteOffset": 233412,
      "byteStride": 8,
      "name": "floatBufferViews",
      "target": 34962
    },
    {
      "buffer": 0,
      "byteLength": 342336,
      "byteOffset": 347524,
      "byteStride": 12,
      "name": "floatBufferViews",
      "target": 34962
    }
  ],
  "buffers": [
    {
      "byteLength": 689860,
      "uri": "scene.bin"
    }
  ],
  "images": [
    {
      "uri": "textures/Material_972_baseColor.jpeg"
    },
    {
      "uri": "textures/Material_974_baseColor.jpeg"
    }
  ],
  "materials": [
    {
      "doubleSided": true,
      "name": "Material_972",
      "pbrMetallicRoughness": {
        "baseColorTexture": {
          "index": 0
        },
        "metallicFactor": 0.0,
        "roughnessFactor": 0.6
      }
    },
    {
      "doubleSided": true,
      "name": "Material_975",
      "pbrMetallicRoughness": {
        "baseColorTexture": {
          "index": 0
        },
        "metallicFactor": 0.0,
        "roughnessFactor": 0.6
      }
    },
    {
      "doubleSided": true,
      "name": "Material_973",
      "pbrMetallicRoughness": {
        "baseColorTexture": {
          "index": 0
        },
        "metallicFactor": 0.0,
        "roughnessFactor": 0.6
      }
    },
    {
      "doubleSided": true,
      "name": "azul",
      "pbrMetallicRoughness": {
        "baseColorFactor": [
          0.0313726,
          0.054902,
          0.235294,
          1.0
        ],
        "metallicFactor": 0.0,
        "roughnessFactor": 0.6
      }
    },
    {
      "doubleSided": true,
      "name": "Material_974",
      "pbrMetallicRoughness": {
        "baseColorTexture": {
          "index": 1
        },
        "metallicFactor": 0.0,
        "roughnessFactor": 0.6
      }
    },
    {
      "doubleSided": true,
      "name": "amarillo",
      "pbrMetallicRoughness": {
        "baseColorFactor": [
          1.0,
          0.713726,
          0.0980392,
          1.0
        ],
        "metallicFactor": 0.0,
        "roughnessFactor": 0.6
      }
    },
    {
      "doubleSided": true,
      "name": "Material_971",
      "pbrMetallicRoughness": {
        "baseColorFactor": [
          0.698039,
          0.698039,
          0.698039,
          1.0
        ],
        "metallicFactor": 0.0,
        "roughnessFactor": 0.6
      }
    },
    {
      "doubleSided": true,
      "name": "Material_976",
      "pbrMetallicRoughness": {
        "baseColorFactor": [
          1.0,
          0.7061094423,
          0.0870692155,
          1.0
        ],
        "metallicFactor": 0.0,
        "roughnessFactor": 0.6
      }
    },
    {
      "doubleSided": true,
      "name": "gris",
      "pbrMetallicRoughness": {
        "baseColorFactor": [
          0.909804,
          0.909804,
          0.909804,
          1.0
        ],
        "metallicFactor": 0.0,
        "roughnessFactor": 0.6
      }
    },
    {
      "doubleSided": true,
      "name": "rojo",
      "pbrMetallicRoughness": {
        "baseColorFactor": [
          0.909804,
          0.0,
          0.0,
          1.0
        ],
        "metallicFactor": 0.0,
        "roughnessFactor": 0.6
      }
    }
  ],
  "meshes": [
    {
      "name": "Object_0",
      "primitives": [
        {
          "attributes": {
            "NORMAL": 1,
            "POSITION": 0,
            "TEXCOORD_0": 2
          },
          "indices": 3,
          "material": 1,
          "mode": 4
        }
      ]
    },
    {
      "name": "Object_1",
      "primitives": [
        {
          "attributes": {
            "NORMAL": 5,
            "POSITION": 4,
            "TEXCOORD_0": 6
          },
          "indices": 7,
          "material": 4,
          "mode": 4
        }
      ]
    },
    {
      "name": "Object_2",
      "primitives": [
        {
          "attributes": {
            "NORMAL": 9,
            "POSITION": 8,
            "TEXCOORD_0": 10
          },
          "indices": 11,
          "material": 6,
          "mode": 4
        }
      ]
    },
    {
      "name": "Object_3",
      "primitives": [
        {
          "attributes": {
            "NORMAL": 13,
            "POSITION": 12,
            "TEXCOORD_0": 14
          },
          "indices": 15,
          "material": 7,
          "mode": 4
        }
      ]
    },
    {
      "name": "Object_4",
      "primitives": [
        {
          "attributes": {
            "NORMAL": 17,
            "POSITION": 16,
            "TEXCOORD_0": 18
          },
          "indices": 19,
          "material": 0,
          "mode": 4
        }
      ]
    },
    {
      "name": "Object_5",
      "primitives": [
        {
          "attributes": {
            "NORMAL": 21,
            "POSITION": 20,
            "TEXCOORD_0": 22
          },
          "indices": 23,
          "material": 2,
          "mode": 4
        }
      ]
    },
    {
      "name": "Object_6",
      "primitives": [
        {
          "attributes": {
            "NORMAL": 25,
            "POSITION": 24,
            "TEXCOORD_0": 26
          },
          "indices": 27,
          "material": 3,
          "mode": 4
        }
      ]
    },
    {
      "name": "Object_7",
      "primitives": [
        {
          "attributes": {
            "NORMAL": 29,
            "POSITION": 28,
            "TEXCOORD_0": 30
          },
          "indices": 31,
          "material": 5,
          "mode": 4
        }
      ]
    },
    {
      "name": "Object_8",
      "primitives": [
        {
          "attributes": {
            "NORMAL": 33,
            "POSITION": 32,
            "TEXCOORD_0": 34
          },
          "indices": 35,
          "material": 8,
          "mode": 4
        }
      ]
    },
    {
      "name": "Object_9",
      "primitives": [
        {
          "attributes": {
            "NORMAL": 37,
            "POSITION": 36,
            "TEXCOORD_0": 38
          },
          "indices": 39,
          "material": 9,
          "mode": 4
        }
      ]
    }
  ],
  "nodes": [
    {
      "children": [
        1
      ],
      "matrix": [
        1.0,
        0.0,
        0.0,
        0.0,
        0.0,
        2.220446049250313e-16,
        -1.0,
        0.0,
        0.0,
        1.0,
        2.220446049250313e-16,
        0.0,
        0.0,
        0.0,
        0.0,
        1.0
      ],
      "name": "Sketchfab_model"
    },
    {
      "children": [
        2
      ],
      "matrix": [
        1.3778574725620274e-08,
        0.23116612434387207,
        0.0,
        0.0,
        -0.23116610944271088,
        1.3778573837441854e-08,
        0.0,
        0.0,
        0.0,
        0.0,
        0.23116613924503326,
        0.0,
        398.23870849609375,
        -1262.73486328125,
        2280.09716796875,
        1.0
      ],
      "name": "ear"
    },
    {
      "children": [
        3,
        4,
        5,
        6,
        7,
        8,
        9,
        10,
        11,
        12
      ],
      "matrix": [
        3.646455402842215e-07,
        -4.325893628658484,
        0.0,
        0.0,
        4.325893349807773,
        3.6464557352581673e-07,
        -0.0,
        0.0,
        -0.0,
        0.0,
        4.325893070957129,
        0.0,
        5462.456202422818,
        1722.7387522191138,
        -9863.456540024988,
        1.0
      ],
      "name": "3DSMeshMatrix"
    },
    {
      "mesh": 0,
      "name": "Object_3"
    },
    {
      "mesh": 1,
      "name": "Object_4"
    },
    {
      "mesh": 2,
      "name": "Object_5"
    },
    {
      "mesh": 3,
      "name": "Object_6"
    },
    {
      "mesh": 4,
      "name": "Object_7"
    },
    {
      "mesh": 5,
      "name": "Object_8"
    },
    {
      "mesh": 6,
      "name": "Object_9"
    },
    {
      "mesh": 7,
      "name": "Object_10"
    },
    {
      "mesh": 8,
      "name": "Object_11"
    },
    {
      "mesh": 9,
      "name": "Object_12"
    }
  ],
  "samplers": [
    {
      "magFilter": 9729,
      "minFilter": 9987,
      "wrapS": 10497,
      "wrapT": 10497
    }
  ],
  "scene": 0,
  "scenes": [
    {
      "name": "Sketchfab_Scene",
      "nodes": [
        0
      ]
    }
  ],
  "textures": [
    {
      "sampler": 0,
      "source": 0
    },
    {
      "sampler": 0,
      "source": 1
    }
  ]
}
