{
  "accessors": [
    {
      "bufferView": 2,
      "componentType": 5126,
      "count": 224,
      "max": [
        -0.8156350255012512,
        -0.2849609851837158,
        126.26934814453125
      ],
      "min": [
        -4.545825958251953,
        -2.0781259536743164,
        120.9019775390625
      ],
      "type": "VEC3"
    },
    {
      "bufferView": 2,
      "byteOffset": 2688,
      "componentType": 5126,
      "count": 224,
      "max": [
        0.9347102642059326,
        0.9295257329940796,
        0.8786118626594543
      ],
      "min": [
        -0.9393506646156311,
        -0.9902039766311646,
        -0.9436962604522705
      ],
      "type": "VEC3"
    },
    {
      "bufferView": 1,
      "componentType": 5126,
      "count": 224,
      "max": [
        1.0,
        0.3170410096645355
      ],
      "min": [
        0.0,
        0.0
      ],
      "type": "VEC2"
    },
    {
      "bufferView": 0,
      "componentType": 5125,
      "count": 336,
      "type": "SCALAR"
    },
    {
      "bufferView": 2,
      "byteOffset": 5376,
      "componentType": 5126,
      "count": 28615,
      "max": [
        11.677257537841797,
        8.63990306854248,
        124.46891021728516
      ],
      "min": [
        -11.172613143920898,
        -8.261754989624023,
        92.0490951538086
      ],
      "type": "VEC3"
    },
    {
      "bufferView": 2,
      "byteOffset": 348756,
      "componentType": 5126,
      "count": 28615,
      "max": [
        0.999725878238678,
        0.999773383140564,
        0.9989172220230103
      ],
      "min": [
        -0.9999993443489075,
        -0.9997216463088989,
        -0.9998365044593811
      ],
      "type": "VEC3"
    },
    {
      "bufferView": 1,
      "byteOffset": 1792,
      "componentType": 5126,
      "count": 28615,
      "max": [
        0.989687979221344,
        0.977092981338501
      ],
      "min": [
        0.010281000286340714,
        0.009482000023126602
      ],
      "type": "VEC2"
    },
    {
      "bufferView": 0,
      "byteOffset": 1344,
      "componentType": 5125,
      "count": 42837,
      "type": "SCALAR"
    },
    {
      "bufferView": 2,
      "byteOffset": 692136,
      "componentType": 5126,
      "count": 408,
      "max": [
        -1.4459450244903564,
        -0.9921389818191528,
        125.53573608398438
      ],
      "min": [
        -6.640168190002441,
        -6.8076958656311035,
        121.4156494140625
      ],
      "type": "VEC3"
    },
    {
      "bufferView": 2,
      "byteOffset": 697032,
      "componentType": 5126,
      "count": 408,
      "max": [
        0.997593343257904,
        0.9753119945526123,
        0.9892078638076782
      ],
      "min": [
        -0.9924474954605103,
        -0.9638234972953796,
        -0.997494637966156
      ],
      "type": "VEC3"
    },
    {
      "bufferView": 1,
      "byteOffset": 230712,
      "componentType": 5126,
      "count": 408,
      "max": [
        0.9829739928245544,
        0.7867950201034546
      ],
      "min": [
        0.026576999574899673,
        0.019879000261425972
      ],
      "type": "VEC2"
    },
    {
      "bufferView": 0,
      "byteOffset": 172692,
      "componentType": 5125,
      "count": 600,
      "type": "SCALAR"
    },
    {
      "bufferView": 2,
      "byteOffset": 701928,
      "componentType": 5126,
      "count": 784,
      "max": [
        6.975444793701172,
        6.490853786468506,
        131.5808868408203
      ],
      "min": [
        -11.297801971435547,
        -9.916571617126465,
        120.95536804199219
      ],
      "type": "VEC3"
    },
    {
      "bufferView": 2,
      "byteOffset": 711336,
      "componentType": 5126,
      "count": 784,
      "max": [
        0.9885067343711853,
        0.9937443733215332,
        0.9956867694854736
      ],
      "min": [
        -0.9938681125640869,
        -0.9717833995819092,
        -0.9995642304420471
      ],
      "type": "VEC3"
    },
    {
      "bufferView": 1,
      "byteOffset": 233976,
      "componentType": 5126,
      "count": 784,
      "max": [
        1.0,
        0.7884849905967712
      ],
      "min": [
        0.0,
        0.0
      ],
      "type": "VEC2"
    },
    {
      "bufferView": 0,
      "byteOffset": 175092,
      "componentType": 5125,
      "count": 1164,
      "type": "SCALAR"
    },
    {
      "bufferView": 2,
      "byteOffset": 720744,
      "componentType": 5126,
      "count": 12772,
      "max": [
        8.400263786315918,
        2.245893955230713,
        119.62097930908203
      ],
      "min": [
        -8.925811767578125,
        -7.361044883728027,
        107.99747467041016
      ],
      "type": "VEC3"
    },
    {
      "bufferView": 2,
      "byteOffset": 874008,
      "componentType": 5126,
      "count": 12772,
      "max": [
        0.9991001486778259,
        0.9996688961982727,
        0.99949049949646
      ],
      "min": [
        -0.9989235401153564,
        -0.9993410110473633,
        -0.9996950030326843
      ],
      "type": "VEC3"
    },
    {
      "bufferView": 1,
      "byteOffset": 240248,
      "componentType": 5126,
      "count": 12772,
      "max": [
        0.9831100106239319,
        0.981257975101471
      ],
      "min": [
        0.019801000133156776,
        0.015724999830126762
      ],
      "type": "VEC2"
    },
    {
      "bufferView": 0,
      "byteOffset": 179748,
      "componentType": 5125,
      "count": 19152,
      "type": "SCALAR"
    },
    {
      "bufferView": 2,
      "byteOffset": 1027272,
      "componentType": 5126,
      "count": 1158,
      "max": [
        7.963363170623779,
        6.71467399597168,
        158.57632446289063
      ],
      "min": [
        -5.764883041381836,
        -8.67581844329834,
        118.37760925292969
      ],
      "type": "VEC3"
    },
    {
      "bufferView": 2,
      "byteOffset": 1041168,
      "componentType": 5126,
      "count": 1158,
      "max": [
        0.9901211261749268,
        0.9963398575782776,
        0.9952292442321777
      ],
      "min": [
        -0.9965322613716125,
        -0.9967247843742371,
        -0.9954134821891785
      ],
      "type": "VEC3"
    },
    {
      "bufferView": 1,
      "byteOffset": 342424,
      "componentType": 5126,
      "count": 1158,
      "max": [
        0.9733549952507019,
        0.9526709914207458
      ],
      "min": [
        0.02237899973988533,
        0.011607999913394451
      ],
      "type": "VEC2"
    },
    {
      "bufferView": 0,
      "byteOffset": 256356,
      "componentType": 5125,
      "count": 1722,
      "type": "SCALAR"
    },
    {
      "bufferView": 2,
      "byteOffset": 1055064,
      "componentType": 5126,
      "count": 486,
      "max": [
        1.8551379442214966,
        -4.978638172149658,
        162.35850524902344
      ],
      "min": [
        -1.863468050956726,
        -10.169693946838379,
        160.04925537109375
      ],
      "type": "VEC3"
    },
    {
      "bufferView": 2,
      "byteOffset": 1060896,
      "componentType": 5126,
      "count": 486,
      "max": [
        0.9987716674804688,
        0.8211241364479065,
        0.9970448613166809
      ],
      "min": [
        -0.9987716674804688,
        -0.929659903049469,
        -0.9990647435188293
      ],
      "type": "VEC3"
    },
    {
      "bufferView": 1,
      "byteOffset": 351688,
      "componentType": 5126,
      "count": 486,
      "max": [
        0.7780730128288269,
        0.9847149848937988
      ],
      "min": [
        0.45750701427459717,
        0.695930004119873
      ],
      "type": "VEC2"
    },
    {
      "bufferView": 0,
      "byteOffset": 263244,
      "componentType": 5125,
      "count": 714,
      "type": "SCALAR"
    },
    {
      "bufferView": 2,
      "byteOffset": 1066728,
      "componentType": 5126,
      "count": 352,
      "max": [
        1.3417600393295288,
        0.6062399744987488,
        131.19903564453125
      ],
      "min": [
        -3.224669933319092,
        -8.635517120361328,
        123.81033325195313
      ],
      "type": "VEC3"
    },
    {
      "bufferView": 2,
      "byteOffset": 1070952,
      "componentType": 5126,
      "count": 352,
      "max": [
        0.9923207759857178,
        0.9959705471992493,
        0.9986173510551453
      ],
      "min": [
        -0.9883188605308533,
        -0.9480926394462585,
        -0.9607154726982117
      ],
      "type": "VEC3"
    },
    {
      "bufferView": 1,
      "byteOffset": 355576,
      "componentType": 5126,
      "count": 352,
      "max": [
        0.9875540137290955,
        0.9845370054244995
      ],
      "min": [
        0.01675100065767765,
        0.0137339998036623
      ],
      "type": "VEC2"
    },
    {
      "bufferView": 0,
      "byteOffset": 266100,
      "componentType": 5125,
      "count": 528,
      "type": "SCALAR"
    }
  ],
  "asset": {
    "extras": {
      "author": "testdynaweb (https://sketchfab.com/testdynaweb)",
      "license": "CC-BY-4.0 (http://creativecommons.org/licenses/by/4.0/)",
      "source": "https://sketchfab.com/3d-models/digestive-system-9d2496ea02214506840006a1a92b321a",
      "title": "Digestive System"
    },
    "generator": "Sketchfab-12.64.0",
    "version": "2.0"
  },
  "bufferViews": [
    {
      "buffer": 0,
      "byteLength": 268212,
      "name": "floatBufferViews",
      "target": 34963
    },
    {
      "buffer": 0,
      "byteLength": 358392,
      "byteOffset": 268212,
      "byteStride": 8,
      "name": "floatBufferViews",
      "target": 34962
    },
    {
      "buffer": 0,
      "byteLength": 1075176,
      "byteOffset": 626604,
      "byteStride": 12,
      "name": "floatBufferViews",
      "target": 34962
    }
  ],
  "buffers": [
    {
      "byteLength": 1701780,
      "uri": "scene.bin"
    }
  ],
  "images": [
    {
      "uri": "textures/Male_Anatomy_Complete_Rigged_V06_MAMale_Digestive_System_V05Digestive_Bileduct_GeoSG_baseColor.jpeg"
    },
    {
      "uri": "textures/Male_Anatomy_Complete_Rigged_V06_MAMale_Digestive_System_V05Digestive_Colon_GeoSG_baseColor.jpeg"
    },
    {
      "uri": "textures/Male_Anatomy_Complete_Rigged_V06_MAMale_Digestive_System_V05Digestive_Gall_Bladder_GeoSG_baseColor.jpeg"
    },
    {
      "uri": "textures/Male_Anatomy_Complete_Rigged_V06_MAMale_Digestive_System_V05Digestive_Liver_GeoSG_baseColor.jpeg"
    },
    {
      "uri": "textures/Male_Anatomy_Complete_Rigged_V06_MAMale_Digestive_System_V05Digestive_Small_Intestine_GeoSG_baseColor.jpeg"
    },
    {
      "uri": "textures/Male_Anatomy_Complete_Rigged_V06_MAMale_Digestive_System_V05Digestive_Stomach_GeoSG_baseColor.jpeg"
    },
    {
      "uri": "textures/Male_Anatomy_Complete_Rigged_V06_MAMale_Digestive_System_V05Digestive_Tongue_GeoSG_baseColor.jpeg"
    },
    {
      "uri": "textures/Male_Anatomy_Complete_Rigged_V06_MAMale_Digestive_System_V05Digestove_Falciform_Ligament_GeoSG_baseColor.jpeg"
    }
  ],
  "materials": [
    {
      "doubleSided": true,
      "name": "Male_Anatomy_Complete_Rigged_V06_MAMale_Digestive_System_V05Digestive_Bileduct_GeoSG",
      "pbrMetallicRoughness": {
        "baseColorTexture": {
          "index": 0
        },
        "metallicFactor": 0.0,
        "roughnessFactor": 0.6
      }
    },
    {
      "doubleSided": true,
      "name": "Male_Anatomy_Complete_Rigged_V06_MAMale_Digestive_System_V05Digestive_Colon_GeoSG",
      "pbrMetallicRoughness": {
        "baseColorTexture": {
          "index": 1
        },
        "metallicFactor": 0.0,
        "roughnessFactor": 0.6
      }
    },
    {
      "doubleSided": true,
      "name": "Male_Anatomy_Complete_Rigged_V06_MAMale_Digestive_System_V05Digestive_Gall_Bladder_GeoSG",
      "pbrMetallicRoughness": {
        "baseColorTexture": {
          "index": 2
        },
        "metallicFactor": 0.0,
        "roughnessFactor": 0.6
      }
    },
    {
      "doubleSided": true,
      "name": "Male_Anatomy_Complete_Rigged_V06_MAMale_Digestive_System_V05Digestive_Liver_GeoSG",
      "pbrMetallicRoughness": {
        "baseColorTexture": {
          "index": 3
        },
        "metallicFactor": 0.0,
        "roughnessFactor": 0.6
      }
    },
    {
      "doubleSided": true,
      "name": "Male_Anatomy_Complete_Rigged_V06_MAMale_Digestive_System_V05Digestive_Small_Intestine_GeoSG",
      "pbrMetallicRoughness": {
        "baseColorTexture": {
          "index": 4
        },
        "metallicFactor": 0.0,
        "roughnessFactor": 0.6
      }
    },
    {
      "doubleSided": true,
      "name": "Male_Anatomy_Complete_Rigged_V06_MAMale_Digestive_System_V05Digestive_Stomach_GeoSG",
      "pbrMetallicRoughness": {
        "baseColorTexture": {
          "index": 5
        },
        "metallicFactor": 0.0,
        "roughnessFactor": 0.6
      }
    },
    {
      "doubleSided": true,
      "name": "Male_Anatomy_Complete_Rigged_V06_MAMale_Digestive_System_V05Digestive_Tongue_GeoSG",
      "pbrMetallicRoughness": {
        "baseColorTexture": {
          "index": 6
        },
        "metallicFactor": 0.0,
        "roughnessFactor": 0.6
      }
    },
    {
      "doubleSided": true,
      "name": "Male_Anatomy_Complete_Rigged_V06_MAMale_Digestive_System_V05Digestove_Falciform_Ligament_GeoSG",
      "pbrMetallicRoughness": {
        "baseColorTexture": {
          "index": 7
        },
        "metallicFactor": 0.0,
        "roughnessFactor": 0.6
      }
    }
  ],
  "meshes": [
    {
      "name": "Object_0",
      "primitives": [
        {
          "attributes": {
            "NORMAL": 1,
            "POSITION": 0,
            "TEXCOORD_0": 2
          },
          "indices": 3,
          "material": 0,
          "mode": 4
        }
      ]
    },
    {
      "name": "Object_1",
      "primitives": [
        {
          "attributes": {
            "NORMAL": 5,
            "POSITION": 4,
            "TEXCOORD_0": 6
          },
          "indices": 7,
          "material": 1,
          "mode": 4
        }
      ]
    },
    {
      "name": "Object_2",
      "primitives": [
        {
          "attributes": {
            "NORMAL": 9,
            "POSITION": 8,
            "TEXCOORD_0": 10
          },
          "indices": 11,
          "material": 2,
          "mode": 4
        }
      ]
    },
    {
      "name": "Object_3",
      "primitives": [
        {
          "attributes": {
            "NORMAL": 13,
            "POSITION": 12,
            "TEXCOORD_0": 14
          },
          "indices": 15,
          "material": 3,
          "mode": 4
        }
      ]
    },
    {
      "name": "Object_4",
      "primitives": [
        {
          "attributes": {
            "NORMAL": 17,
            "POSITION": 16,
            "TEXCOORD_0": 18
          },
          "indices": 19,
          "material": 4,
          "mode": 4
        }
      ]
    },
    {
      "name": "Object_5",
      "primitives": [
        {
          "attributes": {
            "NORMAL": 21,
            "POSITION": 20,
            "TEXCOORD_0": 22
          },
          "indices": 23,
          "material": 5,
          "mode": 4
        }
      ]
    },
    {
      "name": "Object_6",
      "primitives": [
        {
          "attributes": {
            "NORMAL": 25,
            "POSITION": 24,
            "TEXCOORD_0": 26
          },
          "indices": 27,
          "material": 6,
          "mode": 4
        }
      ]
    },
    {
      "name": "Object_7",
      "primitives": [
        {
          "attributes": {
            "NORMAL": 29,
            "POSITION": 28,
            "TEXCOORD_0": 30
          },
          "indices": 31,
          "material": 7,
          "mode": 4
        }
      ]
    }
  ],
  "nodes": [
    {
      "children": [
        1
      ],
      "matrix": [
        1.0,
        0.0,
        0.0,
        0.0,
        0.0,
        2.220446049250313e-16,
        -1.0,
        0.0,
        0.0,
        1.0,
        2.220446049250313e-16,
        0.0,
        0.0,
        0.0,
        0.0,
        1.0
      ],
      "name": "Sketchfab_model"
    },
    {
      "children": [
        2,
        3,
        4,
        5,
        6,
        7,
        8,
        9
      ],
      "name": "stmoch.obj.cleaner.gles"
    },
    {
      "mesh": 0,
      "name": "Object_2"
    },
    {
      "mesh": 1,
      "name": "Object_3"
    },
    {
      "mesh": 2,
      "name": "Object_4"
    },
    {
      "mesh": 3,
      "name": "Object_5"
    },
    {
      "mesh": 4,
      "name": "Object_6"
    },
    {
      "mesh": 5,
      "name": "Object_7"
    },
    {
      "mesh": 6,
      "name": "Object_8"
    },
    {
      "mesh": 7,
      "name": "Object_9"
    }
  ],
  "samplers": [
    {
      "magFilter": 9729,
      "minFilter": 9987,
      "wrapS": 10497,
      "wrapT": 10497
    }
  ],
  "scene": 0,
  "scenes": [
    {
      "name": "Sketchfab_Scene",
      "nodes": [
        0
      ]
    }
  ],
  "textures": [
    {
      "sampler": 0,
      "source": 0
    },
    {
      "sampler": 0,
      "source": 1
    },
    {
      "sampler": 0,
      "source": 2
    },
    {
      "sampler": 0,
      "source": 3
    },
    {
      "sampler": 0,
      "source": 4
    },
    {
      "sampler": 0,
      "source": 5
    },
    {
      "sampler": 0,
      "source": 6
    },
    {
      "sampler": 0,
      "source": 7
    }
  ]
}
