{
  "accessors": [
    {
      "bufferView": 2,
      "componentType": 5126,
      "count": 65532,
      "max": [
        9.695229530334473,
        0.7684329748153687,
        7.393566131591797
      ],
      "min": [
        -14.761789321899414,
        -21.32223129272461,
        -9.93047046661377
      ],
      "type": "VEC3"
    },
    {
      "bufferView": 2,
      "byteOffset": 786384,
      "componentType": 5126,
      "count": 65532,
      "max": [
        0.9999661445617676,
        0.9998905062675476,
        0.9998654723167419
      ],
      "min": [
        -0.9999923706054688,
        -0.9999991059303284,
        -0.9999785423278809
      ],
      "type": "VEC3"
    },
    {
      "bufferView": 1,
      "componentType": 5126,
      "count": 65532,
      "max": [
        0.9985349774360657,
        0.9980250000953674
      ],
      "min": [
        0.0014649999793618917,
        0.14222200214862823
      ],
      "type": "VEC2"
    },
    {
      "bufferView": 0,
      "componentType": 5125,
      "count": 345552,
      "type": "SCALAR"
    },
    {
      "bufferView": 2,
      "byteOffset": 1572768,
      "componentType": 5126,
      "count": 65533,
      "max": [
        18.574968338012695,
        -4.7661027908325195,
        24.593896865844727
      ],
      "min": [
        -12.190836906433105,
        -24.25349998474121,
        -9.895822525024414
      ],
      "type": "VEC3"
    },
    {
      "bufferView": 2,
      "byteOffset": 2359164,
      "componentType": 5126,
      "count": 65533,
      "max": [
        0.9999672174453735,
        0.9997434616088867,
        0.999965250492096
      ],
      "min": [
        -0.9999995231628418,
        -0.9999447464942932,
        -0.9999892115592957
      ],
      "type": "VEC3"
    },
    {
      "bufferView": 1,
      "byteOffset": 524256,
      "componentType": 5126,
      "count": 65533,
      "max": [
        0.9985349774360657,
        0.9953089952468872
      ],
      "min": [
        0.0014649999793618917,
        0.0014809999847784638
      ],
      "type": "VEC2"
    },
    {
      "bufferView": 0,
      "byteOffset": 1382208,
      "componentType": 5125,
      "count": 353991,
      "type": "SCALAR"
    },
    {
      "bufferView": 2,
      "byteOffset": 3145560,
      "componentType": 5126,
      "count": 65532,
      "max": [
        9.70576000213623,
        -5.028028964996338,
        8.587058067321777
      ],
      "min": [
        -10.582839965820313,
        -24.277542114257813,
        -9.931929588317871
      ],
      "type": "VEC3"
    },
    {
      "bufferView": 2,
      "byteOffset": 3931944,
      "componentType": 5126,
      "count": 65532,
      "max": [
        0.9999538660049438,
        0.9894916415214539,
        0.9999710917472839
      ],
      "min": [
        -0.9999126195907593,
        -0.999708890914917,
        -0.9999821186065674
      ],
      "type": "VEC3"
    },
    {
      "bufferView": 1,
      "byteOffset": 1048520,
      "componentType": 5126,
      "count": 65532,
      "max": [
        0.9985349774360657,
        0.9985190033912659
      ],
      "min": [
        0.0014649999793618917,
        0.0014809999847784638
      ],
      "type": "VEC2"
    },
    {
      "bufferView": 0,
      "byteOffset": 2798172,
      "componentType": 5125,
      "count": 358083,
      "type": "SCALAR"
    },
    {
      "bufferView": 2,
      "byteOffset": 4718328,
      "componentType": 5126,
      "count": 13535,
      "max": [
        9.6404390335083,
        -7.806230068206787,
        7.365575790405273
      ],
      "min": [
        -2.6355440616607666,
        -16.615812301635742,
        -1.6601020097732544
      ],
      "type": "VEC3"
    },
    {
      "bufferView": 2,
      "byteOffset": 4880748,
      "componentType": 5126,
      "count": 13535,
      "max": [
        0.9997492432594299,
        0.8799017667770386,
        0.8399507999420166
      ],
      "min": [
        -0.9997902512550354,
        -0.9998130202293396,
        -0.9996640086174011
      ],
      "type": "VEC3"
    },
    {
      "bufferView": 1,
      "byteOffset": 1572776,
      "componentType": 5126,
      "count": 13535,
      "max": [
        0.9951170086860657,
        0.7691360116004944
      ],
      "min": [
        0.01464799977838993,
        0.0014809999847784638
      ],
      "type": "VEC2"
    },
    {
      "bufferView": 0,
      "byteOffset": 4230504,
      "componentType": 5125,
      "count": 70299,
      "type": "SCALAR"
    }
  ],
  "asset": {
    "extras": {
      "author": "yanyili (https://sketchfab.com/yanyili)",
      "license": "CC-BY-4.0 (http://creativecommons.org/licenses/by/4.0/)",
      "source": "https://sketchfab.com/3d-models/inside-of-the-stomach-72df94b4e28f444ea7341422c720e931",
      "title": "Inside of the Stomach"
    },
    "generator": "Sketchfab-12.64.0",
    "version": "2.0"
  },
  "bufferViews": [
    {
      "buffer": 0,
      "byteLength": 4511700,
      "name": "floatBufferViews",
      "target": 34963
    },
    {
      "buffer": 0,
      "byteLength": 1681056,
      "byteOffset": 4511700,
      "byteStride": 8,
      "name": "floatBufferViews",
      "target": 34962
    },
    {
      "buffer": 0,
      "byteLength": 5043168,
      "byteOffset": 6192756,
      "byteStride": 12,
      "name": "floatBufferViews",
      "target": 34962
    }
  ],
  "buffers": [
    {
      "byteLength": 11235924,
      "uri": "scene.bin"
    }
  ],
  "images": [
    {
      "uri": "textures/Material_0_baseColor.jpeg"
    }
  ],
  "materials": [
    {
      "doubleSided": true,
      "name": "Material_0",
      "pbrMetallicRoughness": {
        "baseColorTexture": {
          "index": 0
        },
        "metallicFactor": 0.0
      }
    }
  ],
  "meshes": [
    {
      "name": "Object_0",
      "primitives": [
        {
          "attributes": {
            "NORMAL": 1,
            "POSITION": 0,
            "TEXCOORD_0": 2
          },
          "indices": 3,
          "material": 0,
          "mode": 4
        }
      ]
    },
    {
      "name": "Object_1",
      "primitives": [
        {
          "attributes": {
            "NORMAL": 5,
            "POSITION": 4,
            "TEXCOORD_0": 6
          },
          "indices": 7,
          "material": 0,
          "mode": 4
        }
      ]
    },
    {
      "name": "Object_2",
      "primitives": [
        {
          "attributes": {
            "NORMAL": 9,
            "POSITION": 8,
            "TEXCOORD_0": 10
          },
          "indices": 11,
          "material": 0,
          "mode": 4
        }
      ]
    },
    {
      "name": "Object_3",
      "primitives": [
        {
          "attributes": {
            "NORMAL": 13,
            "POSITION": 12,
            "TEXCOORD_0": 14
          },
          "indices": 15,
          "material": 0,
          "mode": 4
        }
      ]
    }
  ],
  "nodes": [
    {
      "children": [
        1
      ],
      "matrix": [
        1.0,
        0.0,
        0.0,
        0.0,
        0.0,
        2.220446049250313e-16,
        -1.0,
        0.0,
        0.0,
        1.0,
        2.220446049250313e-16,
        0.0,
        0.0,
        0.0,
        0.0,
        1.0
      ],
      "name": "Sketchfab_model"
    },
    {
      "children": [
        2,
        3,
        4,
        5
      ],
      "name": "A2-InsideStomach.obj.cleaner.materialmerger.gles"
    },
    {
      "mesh": 0,
      "name": "Object_2"
    },
    {
      "mesh": 1,
      "name": "Object_3"
    },
    {
      "mesh": 2,
      "name": "Object_4"
    },
    {
      "mesh": 3,
      "name": "Object_5"
    }
  ],
  "samplers": [
    {
      "magFilter": 9729,
      "minFilter": 9987,
      "wrapS": 10497,
      "wrapT": 10497
    }
  ],
  "scene": 0,
  "scenes": [
    {
      "name": "Sketchfab_Scene",
      "nodes": [
        0
      ]
    }
  ],
  "textures": [
    {
      "sampler": 0,
      "source": 0
    }
  ]
}
